<svg xmlns="http://www.w3.org/2000/svg" data-name="Layer 1" viewBox="0 0 1140 450">
  <path fill="#fce4ec" d="M0 0h1140v450H0z"/>
  <path fill="#3f3d56" d="M863.05398 22.6593H288.7551a17.99327 16.27677 0 0 0-17.97358 16.25897v274.07968a17.99327 16.27677 0 0 0 17.97358 16.25896h574.29888a17.99327 16.27677 0 0 0 17.97356-16.25896V38.91827a17.99327 16.27677 0 0 0-17.97356-16.25897zm16.26179 290.33865a16.27655 14.72382 0 0 1-16.26179 14.71049H288.7551a16.27655 14.72382 0 0 1-16.26181-14.71049V38.91827a16.27655 14.72382 0 0 1 16.26181-14.71049h574.29888a16.27655 14.72382 0 0 1 16.26179 14.71049v274.07968z"/>
  <path fill="#3f3d56" d="M834.80978 67.07696H316.99931a.85589.77424 0 0 1 0-1.54848h517.81047a.85589.77424 0 0 1 0 1.54848z"/>
  <path fill="#3f3d56" d="M463.35566 295.96475a.85589.77424 0 0 1-.85589-.77424V40.46674a.85589.77424 0 1 1 1.71177 0v254.72377a.85593.77428 0 0 1-.85588.77424zm129.23864 0a.85589.77424 0 0 1-.85588-.77424V40.46674a.85589.77424 0 1 1 1.71177 0v254.72377a.85593.77428 0 0 1-.85589.77424zm129.23865 0a.85589.77424 0 0 1-.85589-.77424V40.46674a.85589.77424 0 1 1 1.71177 0v254.72377a.85593.77428 0 0 1-.85588.77424z"/>
  <path fill="#6c818c" d="M380.26261 146.99191h-31.27404a3.85576 3.48793 0 0 1-3.85148-3.48407v-33.38477a3.85576 3.48793 0 0 1 3.85148-3.48406h31.27404a3.85576 3.48793 0 0 1 3.85148 3.48406v33.38479a3.85576 3.48793 0 0 1-3.85148 3.48405zm44.50602 95.23107h-31.27404a3.85576 3.48793 0 0 1-3.85148-3.48406v-33.38477a3.85576 3.48793 0 0 1 3.85148-3.48406h31.27404a3.85576 3.48793 0 0 1 3.85149 3.48406v33.38479a3.85576 3.48793 0 0 1-3.85149 3.48404zm100.99454-75.10093h-31.27404a3.85583 3.488 0 0 1-3.85148-3.48406v-33.38477a3.85583 3.488 0 0 1 3.85148-3.48406h31.27404a3.85583 3.488 0 0 1 3.85149 3.48406v33.38479a3.85583 3.488 0 0 1-3.85149 3.48404zm130.95042-36.38911h-31.27404a3.85583 3.488 0 0 1-3.85148-3.48406V93.86411a3.85583 3.488 0 0 1 3.85148-3.48406h31.27404a3.85583 3.488 0 0 1 3.85148 3.48406v33.38479a3.85583 3.488 0 0 1-3.85148 3.48404zm120.6798 0h-31.27404a3.85583 3.488 0 0 1-3.85149-3.48406V93.86411a3.85583 3.488 0 0 1 3.85149-3.48406h31.27404a3.85583 3.488 0 0 1 3.85148 3.48406v33.38479a3.85583 3.488 0 0 1-3.85148 3.48404z"/>
  <path fill="#e6e6e6" d="M833.02592 140.02378h-31.27405a3.85583 3.488 0 0 1-3.85148-3.48406v-33.38477a3.85583 3.488 0 0 1 3.85148-3.48407h31.27405a3.85583 3.488 0 0 1 3.85148 3.48407v33.38478a3.85583 3.488 0 0 1-3.85148 3.48405zm-24.82067 59.6162h-31.27404a3.85583 3.488 0 0 1-3.85149-3.48406v-33.38477a3.85583 3.488 0 0 1 3.85149-3.48407h31.27404a3.85583 3.488 0 0 1 3.85148 3.48407v33.38478a3.85583 3.488 0 0 1-3.85148 3.48405z"/>
  <path fill="#ff6584" d="M702.0755 187.2522h-31.27404a3.85583 3.488 0 0 1-3.85148-3.48406v-33.38477a3.85583 3.488 0 0 1 3.85148-3.48407h31.27404a3.85583 3.488 0 0 1 3.85148 3.48407v33.38478a3.85583 3.488 0 0 1-3.85148 3.48405z"/>
  <path fill="#e6e6e6" d="M641.30766 199.63998h-31.27404a3.85583 3.488 0 0 1-3.85148-3.48406v-33.38477a3.85583 3.488 0 0 1 3.85148-3.48407h31.27404a3.85583 3.488 0 0 1 3.85148 3.48407v33.38478a3.85583 3.488 0 0 1-3.85148 3.48405zm-130.95042 52.64808H479.0832a3.85583 3.488 0 0 1-3.85148-3.48407v-33.38477a3.85583 3.488 0 0 1 3.85148-3.48406h31.27404a3.85583 3.488 0 0 1 3.85149 3.48406v33.38479a3.85583 3.488 0 0 1-3.85149 3.48405z"/>
  <path fill="#ff6584" d="M352.0184 208.15658h-31.27404a3.85576 3.48793 0 0 1-3.85148-3.48406v-33.38477a3.85576 3.48793 0 0 1 3.85148-3.48407h31.27404a3.85576 3.48793 0 0 1 3.85149 3.48407v33.38479a3.85576 3.48793 0 0 1-3.85149 3.48404z"/>
  <path fill="#e6e6e6" d="M440.17457 146.99191h-31.27405a3.85576 3.48793 0 0 1-3.85148-3.48407v-33.38477a3.85576 3.48793 0 0 1 3.85148-3.48406h31.27405a3.85576 3.48793 0 0 1 3.85148 3.48406v33.38479a3.85576 3.48793 0 0 1-3.85148 3.48405z"/>
  <path fill="#ccc" d="M414.57021 54.40299h-48.78545a3.42354 3.09695 0 0 1 0-6.19389h48.78545a3.42354 3.09695 0 0 1 0 6.19389zm137.79749 0h-48.78545a3.42354 3.09695 0 0 1 0-6.19389h48.78545a3.42354 3.09695 0 0 1 0 6.19389zm129.23865 0H632.8209a3.42354 3.09695 0 0 1 0-6.19389h48.78545a3.42354 3.09695 0 0 1 0 6.19389zm120.67979 0h-48.78545a3.42354 3.09695 0 0 1 0-6.19389h48.78545a3.42354 3.09695 0 0 1 0 6.19389z"/>
  <path fill="#ffb8b8" d="M305.30187 281.17013a8.60658 7.78554 0 0 1-7.44626-9.85638l-21.93878-18.47413 11.59961-2.66194 21.57321 15.82835a8.65323 7.82774 0 0 1-3.78778 15.16408v.00002zm40.78702 136.54562 4.99152-36.61209h-15.48638l.00171 36.61209h10.49315z"/>
  <path fill="#2f2e41" d="m366.32548 426.52854-32.97788.001-.00058-11.52595 20.23645-.00084a12.74144 11.52595 0 0 1 12.74202 11.52542l-.00001.00037z"/>
  <path fill="#ffb8b8" d="m273.79142 413.30415 15.23561-34.21815-14.96515-3.6033-10.41098 35.37951 10.14052 2.44194z"/>
  <path fill="#2f2e41" d="m290.84063 426.53151-31.86817-7.67336 3.27736-11.1381 19.55547 4.70865a11.52592 12.74141 89.999998 0 1 9.03534 14.10281zm58.07007-15.74767h-16.01128a4.04817 3.66199 0 0 1-4.04497-3.3238l-9.71983-91.30693a3.20757 2.90158 0 0 0-6.26593-.55346l-28.22146 85.32025a4.05874 3.67155 0 0 1-4.87854 2.51324l-14.89504-3.36914a4.06329 3.67566 0 0 1-2.95047-4.48059c.24323-.85967 24.31625-85.96216 24.52646-86.83696 5.45439-36.36416 11.97988-46.10865 15.48553-51.34306.29024-.43325.55687-.8317.79695-1.20823.30049-.47105 2.15037-5.14444 3.32388-8.17939a4.09969 3.70859 0 0 1 2.08413-2.30531c14.73037-6.81465 31.96509-2.09741 36.89646-.4892a4.00734 3.62505 0 0 1 2.00117 1.40557c14.79369 20.18534 7.53371 137.42016 5.92809 160.71677a4.06654 3.67861 0 0 1-4.05515 3.44024z"/>
  <ellipse cx="307.5913" cy="160.49215" fill="#ffb8b8" rx="21.02142" ry="19.01604"/>
  <path fill="#ccc" d="m305.36399 251.70776-.15107-.13232c-.28334-.24799-28.29185-25.06968-24.66709-48.02155 1.55025-9.81708 10.33081-16.0896 25.39217-18.14088a23.22421 21.00869 0 0 1 25.67634 14.80425l14.89232 46.05497-41.14267 5.43553z"/>
  <path fill="#ccc" d="m291.02875 269.36246-19.95783-17.93974a11.24351 10.17092 0 0 1-2.97825-9.59404l9.66172-35.55211a8.86193 8.01653 0 0 1 11.28047-5.72965 8.91038 8.06036 0 0 1 5.82779 9.90553l-10.17175 31.27643 16.44862 15.9777-10.11077 11.65588z"/>
  <path fill="#ffb8b8" d="M398.07563 208.13724a8.60658 7.78554 0 0 1-12.73877 3.11915l-26.64323 12.4919 1.1776-10.61152 23.6198-13.22307a8.65324 7.82775 0 0 1 14.58464 8.22354h-.00004z"/>
  <path fill="#ccc" d="m382.42732 216.03615-25.9729 10.15299a10.9629 9.91708 0 0 1-10.67888-1.03629l-33.02769-21.40691a8.86269 8.01722 0 0 1-1.68912-11.60259 8.90998 8.05999 0 0 1 12.33211-1.214l28.31992 20.16267 22.50996-7.87799 8.2066 12.82212z"/>
  <path fill="#2f2e41" d="M311.07628 166.58561c2.59333-2.93933 7.43834-3.09734 11.00056-5.03624 4.66612-2.53975 6.59523-8.21524 5.09156-12.94988-1.50367-4.73463-5.9382-8.42446-11.02243-10.18917-5.08424-1.76471-10.74085-1.78654-16.10424-.93348-7.98559 1.27012-15.84767 4.64164-20.71803 10.50557-4.87035 5.86394-6.1098 14.45177-1.69593 20.60431 2.02867 2.82779 5.16032 5.16195 5.97022 8.45244 1.06327 4.31988-2.28641 8.48627-5.87497 11.49431-4.08833 3.42699-8.77882 6.29717-12.36063 10.16026-3.58181 3.86308-5.97034 9.14079-4.33591 13.96114 1.36942 4.03869 5.35434 7.01418 9.72408 8.50428 4.36974 1.49009 9.12893 1.70541 13.79793 1.78801 4.53377.0802 9.34937-.0195 13.16864-2.23089 4.0887-2.36734 6.27177-6.85842 6.43306-11.24737.16129-4.38895-1.46003-8.68888-3.63293-12.6158-1.29515-2.34062-2.80102-4.60868-3.66163-7.1077-.8606-2.49901-1.00968-5.33461.36853-7.63609 1.44873-2.41922 4.37965-3.87815 7.36412-4.40865.15506-.0276.31913-.0522.49072-.0741a6.33224 5.72816 0 0 0 5.42056-6.67985c-.34001-1.71442-.31065-3.35542.57672-4.36111v.00001z"/>
  <path fill="#a0616a" d="m580.86245 418.52637-4.99153-36.61209 15.48639.00078-.00171 36.61131h-10.49315z"/>
  <path fill="#2f2e41" d="M573.36746 415.8141h20.23643v11.52595h-32.97791a12.74145 11.52596 0 0 1 12.74148-11.52595z"/>
  <path fill="#a0616a" d="m657.94688 411.71774-21.35776-31.42548 14.08701-5.82071 16.81472 33.303-9.54397 3.94319z"/>
  <path fill="#2f2e41" d="m649.8834 412.06795 18.40726-7.60547 5.29362 10.48412-29.997 12.39409a12.74143 11.52594 0 0 1 6.29612-15.27274z"/>
  <path fill="#a0616a" d="M636.93363 295.07979a8.6066 7.78556 0 0 0 .68567-11.92209l12.33467-25.31747-15.67009 2.40231-9.31081 23.6736a8.65324 7.82775 0 0 0 11.96056 11.16365z"/>
  <path fill="#2f2e41" d="M590.68676 408.8727H580.6627a3.86591 3.49712 0 0 1-3.84145-3.23153l-5.46654-132.05268a3.85129 3.48389 0 0 1 4.21548-3.71995l57.97327 5.56936a3.8526 3.48507 0 0 1 3.47681 3.40164l1.21487 58.24995a2.98879 2.70367 0 0 0 .20019.92394l23.7809 55.78585a3.85056 3.48323 0 0 1-2.26216 4.52218l-10.158 3.38574a3.85241 3.4849 0 0 1-4.75647-1.6755l-29.21356-51.3854a3.83009 3.46471 0 0 1-.34603-.88463l-4.9905-21.7512a2.99553 2.70977 0 0 0-5.90903.24195l-10.06711 79.5324a3.85063 3.48329 0 0 1-3.82661 3.08788z"/>
  <ellipse cx="595.67821" cy="151.32023" fill="#a0616a" rx="21.02142" ry="19.01604"/>
  <path fill="#6c818c" d="M610.09439 285.66302a75.03058 67.87291 0 0 1-40.11773-10.9928l-.20456-.12775.0211-.22418 8.04104-84.71385a13.19818 11.93911 0 0 1 12.49496-10.88695c10.42125-.43324 24.41925.11304 31.91243 5.16146 11.32397 7.6297 16.78191 19.11887 14.97423 31.52102-3.74888 25.71916.49794 60.41312.99442 64.2843l.0359.279-.28209.1172a66.13091 59.82223 0 0 1-27.86976 5.58255h.00006z"/>
  <path fill="#6c818c" d="M638.11334 279.82789a4.28542 3.8766 0 0 1-3.15022-1.25587l-4.59829-4.53805a4.30152 3.89116 0 0 1-.94929-3.71241l10.48522-32.10283-15.95361-30.30636a7.55943 6.83829 0 0 1-.51675-4.55204 7.53949 6.82025 0 0 1 13.96225-1.61351l21.64934 31.77621a10.22861 9.25284 0 0 1 .61624 8.67008l-17.63967 35.35551a4.26876 3.86153 0 0 1-3.22357 2.22971 4.32541 3.91278 0 0 1-.68165.0496v-.00004z"/>
  <path fill="#a0616a" d="M489.94074 218.50438a8.60658 7.78554 0 0 0 12.83703-2.76996l30.33085 3.55849-6.97049-12.92083-27.7341-1.39827a8.65324 7.82775 0 0 0-8.4633 13.53056l.00001.00001z"/>
  <path fill="#6c818c" d="M556.79527 225.56102a11.49056 10.39439 0 0 1-1.57886-.0987l-47.71645-5.98672a4.74256 4.29014 0 0 1-3.63814-2.4089 4.84214 4.38021 0 0 1-.27206-.64192h-.00021a4.76221 4.30791 0 0 1 .49213-3.43114l3.94865-5.92208a4.77936 4.32342 0 0 1 4.07047-2.0796h.007l41.59254.0431 31.06345-25.17592a8.44577 7.64007 0 0 1 5.22704-1.93521 8.41755 7.61455 0 0 1 6.31007 13.01912l-30.99635 31.18487a11.43805 10.34689 0 0 1-8.50913 3.43304l-.00015.00006z"/>
  <path fill="#2f2e41" d="M598.06799 168.2374c1.92104-4.02182 3.54661-9.37796-.13799-12.22143-2.13725-1.64934-5.21563-1.65275-8.01576-1.85795-7.88896-.5781-16.00978-3.86166-19.86575-10.11428-3.85597-6.25262-1.70255-15.55009 5.57201-18.37108 4.90356-1.90153 10.52519-.60616 15.65793.71049l15.4109 3.9532c4.57903 1.17461 9.3868 2.47001 12.68336 5.57566 5.25742 4.95301 4.86442 13.32589.68863 19.06015-4.17578 5.73425-10.46435 11.7148-17.66347 13.89197l-4.32986-.62673z"/>
  <path fill="#f9f9f9" d="M355.9453 303.30086c-.68985-30.88202-3.05463-47.94703-7.7022-55.58164-1.36216-2.23764-8.85484-23.82058-8.85484-25.50669 0-.30259 1.99854.69221 4.44121 2.21066 6.35539 3.95072 9.3461 3.63436 25.23186-2.66905 11.36209-4.50842 13.24907-5.52726 13.02845-7.03442-.28605-1.95402 2.15565-3.02252 5.12969-2.2448 1.6737.43769 1.77153 1.2082 1.77153 13.95201 0 11.94276.18565 13.65675 1.61983 14.95466 1.38595 1.25427 4.01613 1.46593 18.21637 1.46593 9.74654 0 17.30369-.37845 18.30985-.91692 1.61206-.86275 1.71329-2.03852 1.71329-19.89851 0-17.85999-.10123-19.03576-1.71329-19.89851-.97054-.51941-7.69063-.91693-15.50086-.91693-8.35893 0-13.78756-.33979-13.78756-.86301 0-1.40785-4.99353-3.5658-8.25131-3.5658-1.66359 0-3.9753.72115-5.13712 1.60256-3.90884 2.96541-8.885 5.50815-9.74243 4.97823-.46792-.28919-5.62734 1.15848-11.46536 3.21705-8.64616 3.04876-10.98076 3.56614-12.58912 2.78991-1.8793-.90698-1.84425-.95582.72706-1.01288 1.48587-.0329 3.17989-.53826 3.76449-1.12287 1.50356-1.50355 1.50356-37.11572 0-38.61927-.72882-.72883-5.11381-1.06446-13.95077-1.06783l-12.88785-.005-.12364-9.15045c-.13121-9.71142-1.03117-12.69604-4.88534-16.2018-5.4614-4.96769-14.73852-6.77727-24.6988-4.8177-7.42765 1.46129-12.44137 3.76634-16.86208 7.75229-4.68434 4.22364-6.97421 9.13746-6.99936 15.01985-.0162 3.78596.4949 5.27357 3.04315 8.85763 1.68444 2.3691 3.73459 5.56801 4.5559 7.10866 1.41881 2.66148 1.40725 2.96698-.23168 6.12512-.94873 1.82816-3.40383 4.71006-5.45578 6.40423l-3.73081 3.08071.23556-78.73783.23556-78.73784 2.06756-2.89878c1.13716-1.59433 3.61249-3.68695 5.50074-4.65026 3.39948-1.73428 6.29361-1.75147 294.91983-1.75147 288.62623 0 291.52036.01719 294.91983 1.75147 1.88825.96331 4.36358 3.05593 5.50074 4.65026l2.06756 2.89878v283.4439l-2.06756 2.89879c-1.13716 1.59433-3.61249 3.68694-5.50074 4.65025-3.3675 1.71798-5.6169 1.75148-117.60852 1.75148H639.02297l-.55856-4.65026c-.30721-2.55764-.56202-9.88282-.56626-16.27817-.006-9.26217.26262-11.85224 1.32095-12.73058 1.73926-1.44345 1.70586-6.97268-.0539-8.91715-1.26594-1.39884-1.16096-1.78 1.24496-4.52019 3.8451-4.37935 20.51009-38.34004 20.51009-41.79646 0-2.17133-2.73058-6.80792-11.82311-20.07593l-11.82309-17.25252 3.11455-.54912c5.22632-.92144 5.47367-1.86496 5.47367-20.87849 0-21.93717.96634-20.64614-15.45353-20.64614h-11.9105l2.69157-5.09314c2.22071-4.20214 2.62146-5.84072 2.29078-9.36649-.7593-8.09579-5.35359-11.54638-20.31568-15.25828l-9.56266-2.37237V67.46641h126.66413v114.26345c0 100.97701.1545 114.26345 1.32865 114.26345s1.32864-13.28644 1.32864-114.26345V67.46641h56.76266c45.01641 0 56.6863-.22912 56.39367-1.1072-.28896-.8671-12.59842-1.15665-56.76266-1.3352l-56.39362-.228V51.88519c0-9.93438-.25525-12.82601-1.1072-12.54291-.8004.26597-1.17531 3.84548-1.35297 12.91738l-.24576 12.54946H593.6023V51.89174c0-9.93962-.25524-12.83256-1.10721-12.54946-.80039.26597-1.17531 3.84548-1.35297 12.91738l-.24575 12.54946h-126.6155V51.96556c0-11.67462-.66109-15.2434-2.11964-11.44248-.29571.7706-.53765 6.54789-.53765 12.83842v11.43733l-72.78026.22659c-57.27478.17831-72.85888.46247-73.14928 1.33379-.29322.8798 14.65387 1.1072 72.77692 1.1072h73.14593l.22479 113.96822c.17795 90.22678.45543 114.04509 1.33199 114.33726.88195.29397 1.1072-22.89209 1.1072-113.96822V67.46641h126.66414v29.32495c0 25.59603-.16758 29.26065-1.31786 28.81925-3.22323-1.23687-10.2194-1.58537-13.05297-.65021-4.65385 1.53591-7.89607 5.44002-8.4266 10.14686-.59314 5.2623.14457 7.88892 3.20104 11.39727 1.60712 1.84473 2.7406 4.37961 3.1244 6.98732.98153 6.66904 4.82686 11.75547 11.09082 14.67041 5.12817 2.38642 5.36312 2.63776 5.37195 5.74679.008 2.85601-.29713 3.31852-2.51082 3.80474-1.38603.30441-9.85614 6.52727-18.82247 13.82857l-16.30243 13.27507-31.23965-.16776-31.23965-.16777-2.19791 2.06483c-1.20885 1.13566-2.19791 2.79254-2.19791 3.68195 0 1.36225-.73992 1.61713-4.69455 1.61713-2.582 0-5.17285.47831-5.75746 1.06292-.75791.75791-1.06291 6.29876-1.06291 19.30963 0 13.01088.305 18.55173 1.06291 19.30964.75488.75488 6.12724 1.06292 18.53776 1.06292 14.7052 0 17.69545-.22061 18.86676-1.39192 1.15272-1.15271 1.39191-3.89947 1.39191-15.98387v-14.59196l2.87873.48791c11.25635 1.9078 39.74901 4.90723 42.23225 4.4458 2.10575-.39128 4.92894-2.37659 9.20544-6.47339l6.1682-5.90903-.48719 4.42881c-2.87361 26.12265-5.29967 57.33793-4.49653 57.85538.58169.37476 1.16568 7.8522 1.53461 19.6489.32757 10.47415.83714 21.93371 1.13239 25.46569l.53682 6.42179h-216.9995l-.52929-23.69417zm455.57491-104.7415c.46115-.73075.84457-9.37169.85203-19.20208.0114-15.07996-.20398-18.09098-1.37835-19.26535-2.12833-2.12833-34.48585-2.06334-36.8476.074-1.46787 1.3284-1.61983 3.15182-1.61983 19.43656 0 17.62618.0382 17.99778 1.99297 19.38659 2.83872 2.01683 35.69767 1.6352 37.00078-.42973v.00001zm-107.13929-11.54608c1.61207-.86275 1.7133-2.03852 1.7133-19.89851 0-17.85999-.10123-19.03576-1.7133-19.89851-1.00615-.53847-8.5633-.91693-18.30984-.91693-14.20024 0-16.83042.21167-18.21637 1.46593-1.46787 1.3284-1.61983 3.15181-1.61983 19.43656 0 17.56624.0443 18.00167 1.96861 19.34952 1.60805 1.12632 4.94446 1.37886 18.21638 1.37886 9.50611 0 16.95865-.38046 17.96105-.91692zm-175.61649-20.51854c.76025-.76026 1.06292-6.44143 1.06292-19.9516v-18.88868l-2.41068-.91653c-3.70462-1.4085-34.13523-.69193-35.98658.84739-1.27103 1.0568-1.46209 3.56608-1.46209 19.20209 0 15.17027.21794 18.20434 1.39192 19.37833 1.1713 1.1713 4.16155 1.39191 18.86675 1.39191 12.41053 0 17.78289-.30804 18.53776-1.06291zm-145.26516-20.37256c1.50355-1.50355 1.50355-37.11572 0-38.61927-1.50236-1.50235-36.23117-1.50235-37.73352 0-1.50355 1.50355-1.50355 37.11572 0 38.61927 1.50235 1.50235 36.23116 1.50235 37.73352 0zm59.52328.1959c1.11242-.7032 1.32865-3.87764 1.32865-19.50554 0-15.62788-.21623-18.80233-1.32865-19.50553-2.03878-1.2888-35.7184-1.11061-37.0249.1959-1.50355 1.50355-1.50355 37.11572 0 38.61927 1.3065 1.3065 34.98612 1.4847 37.0249.1959zm393.10171-7.282c1.50355-1.50356 1.50355-37.11572 0-38.61928-.75488-.75488-6.12723-1.06291-18.53776-1.06291-14.7052 0-17.69545.2206-18.86676 1.39191-1.17017 1.17017-1.39191 4.14269-1.39191 18.65926 0 10.20893.37481 17.96769.91692 18.98064.86024 1.60735 2.02683 1.71329 18.86676 1.71329 12.77996 0 18.25597-.30614 19.01275-1.06291zM659.207 130.32444c1.60994-.86162 1.71248-2.02381 1.69974-19.26536-.007-10.09163-.39086-18.94631-.852-19.67706-1.29752-2.05617-33.7996-2.47676-36.8518-.47688l-2.14199 1.40348v18.07446c0 15.2503.21749 18.29194 1.39192 19.46637 1.16767 1.16766 4.10243 1.39191 18.21637 1.39191 9.90365 0 17.52924-.37718 18.53776-.91692zm121.11418-.146c.76006-.76006 1.06291-6.42962 1.06291-19.8985 0-17.71566-.10187-18.89011-1.71329-19.75252-1.00455-.53762-8.51618-.91693-18.15815-.91693-21.71228 0-19.9879-1.80886-19.9879 20.96713 0 14.97028.20644 17.6522 1.46593 19.04391 1.32539 1.46455 3.13402 1.61983 18.86675 1.61983 12.35296 0 17.70917-.30834 18.46375-1.06292zM416.80736 53.9089c.97249-.7111 1.46433-1.99093 1.2765-3.32162l-.30556-2.16478h-54.91732l-.28943 2.04172c-.63983 4.51343-.11837 4.60151 27.24438 4.60151 19.51077 0 25.77664-.26855 26.99143-1.15683zm138.20097-.23509c1.66436-1.66436 1.77258-3.18769.329-4.63127-1.51827-1.51827-53.04475-1.51827-54.56302 0-1.54174 1.54174-1.30308 4.02375.48717 5.06648.95194.55445 11.35244.91323 26.95251.92977 21.93617.02326 25.59236-.16299 26.79434-1.36498zm129.32142 0c1.64672-1.64671 1.66084-1.7651.47499-3.98089-.87502-1.63498-2.12216-1.7133-27.2815-1.7133-19.32477 0-26.6484.28382-27.4275 1.06292-1.54174 1.54174-1.30308 4.02375.48717 5.06648.95194.55445 11.35244.91323 26.95251.92977 21.93617.02326 25.59235-.16299 26.79433-1.36498zm120.14242.47499c1.93092-1.0334 2.2464-3.51024.65038-5.10626-1.51827-1.51827-53.04475-1.51827-54.56302 0-1.44358 1.44358-1.33536 2.96691.329 4.63127 1.20025 1.20025 4.8674 1.39192 26.63113 1.39192 15.70415 0 25.88647-.34641 26.95251-.91693z"/>
  <path fill="#f9f9f9" d="M277.38652 322.50139c-1.76964-1.76964-3.4341-4.10677-3.69878-5.19361-.26469-1.08684-.37003-15.6762-.23408-32.4208l.24717-30.44472 8.65974 7.72523c7.14795 6.37659 8.88575 7.53767 9.95435 6.6508 2.3455-1.94659 2.38988 1.10289.13017 8.94346-1.18157 4.0997-3.03866 12.23712-4.12686 18.08316-2.04831 11.00386-5.86883 26.55454-7.04281 28.66634-.50835.91445-1.4526.42645-3.8889-2.00986zm32.24037 4.12379c.19136-2.41434 4.20571-11.29347 5.45899-12.07445 2.3731-1.47879 3.48628.36909 4.16342 6.91129l.60316 5.82749h-5.13911c-2.82651 0-5.11542-.29895-5.08646-.66433zm-16.3707-77.21395-7.86636-7.90298 1.13528-4.05482c.6244-2.23015 1.45493-4.05482 1.84561-4.05482.39069 0 1.60645 1.29542 2.70169 2.87873 1.09525 1.5833 4.47027 5.68362 7.50006 9.11183 5.46217 6.18044 5.4986 6.25714 4.31206 9.07907-.65815 1.56528-1.32384 2.84597-1.47931 2.84597-.15546 0-3.82253-3.55634-8.14903-7.90298zm311.86062 76.5028c.60918-1.58751 3.96874-1.38786 4.51415.26827.23829.72356-.57206 1.10721-2.33867 1.10721-2.07993 0-2.58159-.31718-2.17548-1.37548z"/>
  <path fill="#f9f9f9" d="M310.70178 326.57191c-.81373-.51694-.44631-2.04494 1.46201-6.08007 2.80481-5.93077 3.85441-7.02028 5.17504-5.37183 1.02508 1.27955 2.80712 11.04593 2.13766 11.71539-.71107.71106-7.56461.50526-8.77471-.26349zm325.84566-86.97296c-.0132-6.60891-.006-6.62891 1.36842-3.87217 1.2482 2.5033 1.24949 3.14519.0133 6.64322l-1.36842 3.87217-.0133-6.64322z"/>
  <path fill="#a0616a" d="M593.90423 175.16582c0-4.98763.0563-5.08697 2.88458-5.08697 1.58652 0 4.17737-.47319 5.75746-1.05153l2.87288-1.05153v12.27703h-11.51492v-5.087z"/>
  <path fill="#f9f9f9" d="M287.5668 233.78409c.0122-.3334.15593-.94646.31937-1.36236.27338-.6957.35192-.6726.9819.28887.85765 1.30895.87713 1.73625.0478 1.04793-.5279-.43812-.69985-.42929-1.00411.0515-.31453.49706-.36395.49334-.34492-.026l-.00004.00006z"/>
  <path fill="#ffb8b8" d="M298.44348 186.49716c0-2.32438.56141-4.22782 1.75075-5.93577 1.54897-2.22439 2.63047-2.80156 4.27722-2.28263 2.93909.92615 8.48939.31162 11.52099-1.27563.58017-.30376.63649.10517.63649 4.62158v4.95483l-1.36391-.53832c-3.14114-1.23977-12.37183-.17581-16.18505 1.86553-.53358.28565-.63649.0577-.63649-1.40959z"/>
</svg>
