<svg xmlns="http://www.w3.org/2000/svg" data-name="content" viewBox="0.22838999330997467 0.18378067016601562 1822.6092529296875 717.64990234375">
  <path data-name="background" fill="#d7ccc8" d="M0 0h1822.6095v717.64996H0z"/>
  <g transform="matrix(.98924 0 0 .97814 -3.88806 16.1122)">
    <ellipse cx="1028.24026" cy="57.68038" fill="#ff6584" rx="61.6834" ry="57.4966"/>
    <path fill="#f0f0f0" d="M1139.55513 13.56626c-29.89444-3.76652-64.02389 11.29491-71.77204 38.47035a26.12053 24.34758 0 0 0-49.7017 2.37731l3.42247 2.28485a450.25814 419.69655 0 0 0 194.3134-.81891c-20.7945-20.37062-46.3677-38.54713-76.26213-42.3136zM1011.35041 90.2284c-29.89444-3.76653-64.02389 11.2949-71.77204 38.47034a26.12053 24.34758 0 0 0-49.7017 2.37732l3.42247 2.28484a450.25814 419.69655 0 0 0 194.31338-.81891c-20.79446-20.37061-46.36765-38.54713-76.26211-42.31359z"/>
    <path fill="#f2f2f2" d="M1239.56146 243.98901c-10.1185-15.59917-22.1084-32.25446-40.8856-37.34798-21.7454-5.89868-44.0833 5.81926-63.03105 17.38246a1836.7235 1712.0546 0 0 0-163.4572 112.25869l.0571.60553q60.98713-3.92032 121.97411-7.84056c29.37547-1.88829 59.76014-4.03702 85.71994-16.99025 9.8508-4.91523 19.4532-11.48102 30.6159-11.93854 13.8686-.56838 25.9611 8.45999 35.4641 17.89254 56.2134 55.79665 72.4805 141.12307 135.54628 190.14464a2001.4289 1865.5805 0 0 0-142.00358-264.16653z"/>
    <path fill="#e4e4e4" d="M1585.09724 717.24588c-6.2163-7.31672-8.7563-9.03035-14.8882-16.41472q-74.8913-90.2865-140.7837-186.67229-44.7566-65.46157-85.07448-133.4372-19.1946-32.31648-37.3368-65.14027-14.0779-25.4507-27.5274-51.20579c-2.5643-4.90413-5.0559-9.8308-7.5351-14.76874-5.8419-11.61206-11.5751-23.28048-17.7311-34.73471-7.0148-13.05511-15.5538-26.74155-28.4352-35.5126a38.79498 36.16174 0 0 0-20.2104-7.24909c-10.4861-.63133-20.1619 3.40471-29.2572 7.81278-66.54549 32.34465-128.84546 72.89667-185.19488 119.04051a964.14322 898.70133 0 0 0-150.4596 155.68049c-1.32995 1.77-4.47471.0789-3.13236-1.70235q7.92835-10.45094 16.17088-20.67622a969.47187 903.66829 0 0 1 247.50724-215.19512q24.0756-14.54326 49.05652-27.72238c8.3937-4.43062 16.824-8.80487 25.3991-12.90855 8.4061-4.02476 17.3319-7.64367 26.935-7.77895 32.6801-.4735 49.6011 34.02446 61.224 57.2373q5.4789 10.95818 11.0908 21.84871 21.2081 41.34675 44.0491 81.93829 14.0965 25.06175 28.8102 49.83038 45.79038 77.13 97.33878 151.13714c45.5249 65.35447 90.6867 123.08782 142.549 184.20332 1.4275 1.69108-1.1244 4.10369-2.5642 2.39006zM987.89305 281.92904c-1.89867-1.97293-3.78553-3.94585-5.69665-5.91877-15.0701-15.53536-31.24033-30.89033-51.93493-39.79667a75.34776 70.23348 0 0 0-31.56751-6.82067c-11.29634.0338-22.33873 2.79591-32.7764 6.66284-4.93475 1.83763-9.76086 3.9233-14.51374 6.14424-5.43084 2.54789-10.76483 5.26489-16.07397 8.00443q-14.94956 7.71131-29.51115 16.09905-28.97345 16.69092-56.13208 35.92974-14.0788 9.97735-27.57647 20.60858-12.55425 9.87589-24.6006 20.28165c-1.71737 1.47687-4.28156-.91319-2.56424-2.39006 2.11658-1.83764 4.25736-3.664 6.39814-5.46781q9.07109-7.64367 18.43274-14.99421 17.07117-13.42715 35.0265-25.8171 27.92105-19.27828 57.7644-35.94102 14.91327-8.32009 30.23696-15.94121c3.08453-1.53324 6.20508-3.03266 9.36166-4.45317a149.23608 139.10657 0 0 1 22.25428-8.44411 79.16862 73.79499 0 0 1 33.61141-3.07776 87.50829 81.5686 0 0 1 31.01118 9.9999c20.31901 10.58614 36.07825 26.95576 51.41466 42.9308 1.54851 1.62343-1.00392 4.02476-2.56419 2.40133z"/>
    <path fill="#e4e4e4" d="m1404.22384 442.91668 48.6897-16.59967 24.1745-8.24181c7.8733-2.68421 15.7276-5.73999 23.8667-7.66202 7.196-1.69933 14.5078-1.97743 21.6022.25656a49.78818 46.40877 0 0 1 16.8493 9.73581 136.73573 127.4547 0 0 1 13.8199 13.75693c5.2632 5.89591 10.4487 11.85364 15.6575 17.7914q32.2464 36.75949 64.0711 73.83803 31.824 37.07794 63.2224 74.47094 31.4752 37.4844 62.5175 75.28229 3.8026 4.63039 7.5989 9.2654c1.3982 1.70705 4.5511.0241 3.1331-1.70703q-31.2713-38.17799-62.9785-76.04343-31.7852-37.95594-64.0096-75.5899-32.2238-37.63321-64.8831-74.94004-8.1364-9.29426-16.2997-18.56802c-4.5907-5.21519-9.1296-10.48661-14.1648-15.34068-9.2425-8.91001-20.7897-16.78405-34.612-16.9977-8.1267-.12561-15.9917 2.27816-23.5423 4.8243-8.1399 2.74485-16.2602 5.54109-24.3897 8.31263l-49.0301 16.71578-12.2576 4.17895c-2.1752.7416-1.2355 4.01143.9646 3.26134v-.00006z"/>
    <path fill="#f2f2f2" d="M923.85409 255.7618c-24.74301-11.8535-56.42988-9.53192-79.16695 5.27729a1129.1486 1052.5068 0 0 1 128.46464 27.94786c-17.52422-9.57262-31.23237-24.57063-49.29769-33.22515zm-79.4105 5.23644-4.76335 3.60895c1.6112-1.26314 3.28615-2.44742 5.00689-3.56817-.0813-.0131-.16225-.0277-.24354-.0408v.00002zm693.12925 182.08427c-4.7929-5.4382-9.9748-11.1323-17.1437-13.34117l-6.6931.24606a759.19471 707.66384 0 0 0 202.2113 215.48392q-89.1872-101.19438-178.3745-202.38881z"/>
    <path fill="#f0f0f0" d="M1039.13759 655.49597c2.72894-20.45435 16.32851-40.60783 37.25626-47.26423a101.88239 94.96705 0 0 0 .005 65.20126c3.21579 8.10814 7.69825 16.81429 4.67343 24.9861-1.88204 5.08473-6.48619 8.975-11.63277 11.40747-5.14684 2.43248-10.8587 3.59185-16.4992 4.72802l-1.11007.85577c-8.95412-18.84646-15.42165-39.46003-12.69271-59.91439h.00006z"/>
    <path fill="#fff" d="M1076.60153 608.6185a87.08199 81.17124 0 0 0-21.64845 45.68313 37.50074 34.95535 0 0 0 .42657 10.94489 21.50816 20.04828 0 0 0 5.34937 9.29882c2.41107 2.46926 5.1841 4.73476 6.90924 7.70732a13.16949 12.2756 0 0 1 .64344 10.02132c-1.52312 4.07211-4.52511 7.39113-7.58182 10.54183-3.39388 3.49827-6.97853 7.08168-8.42119 11.71941-.1748.56193-1.1.27621-.92546-.28482 2.50999-8.06886 10.91313-12.65213 14.92049-19.91964 1.86994-3.39118 2.65481-7.32815.90178-10.90785-1.53295-3.13031-4.39041-5.4688-6.85483-7.9493a22.95087 21.39306 0 0 1-5.59396-8.91059 34.66839 32.31525 0 0 1-.87642-10.88921 84.48515 78.75066 0 0 1 6.17024-23.9316 88.62621 82.61064 0 0 1 15.93609-23.80502c.4167-.43495 1.05886.24922.64488.68133l.00003-.00002z"/>
    <path fill="#fff" d="M1055.21541 648.80405a13.06508 12.17828 0 0 1-9.94509-12.75719c.0497-.58267 1.02335-.53811.97363.0453a12.09797 11.27681 0 0 0 9.27704 11.84923c.61011.1352.30105.99708-.30558.86264v.00002zm4.11419 24.63938a25.18193 23.47269 0 0 0 11.24521-13.51847c.17692-.56134 1.10216-.27583.92546.28482a26.19296 24.4151 0 0 1-11.73234 14.04507c-.54043.29876-.97582-.51419-.43833-.81138v-.00004zm5.41203-49.56467a7.39549 6.89352 0 0 0 7.0084-.33162c.5361-.30504.97093.50832.43832.81138a8.28721 7.72471 0 0 1-7.75228.38288.5037.46951 0 0 1-.30996-.57373.48975.45651 0 0 1 .61552-.28891z"/>
    <path fill="#f0f0f0" d="M1140.18459 644.76576c-.32898.19935-.65787.3987-.9872.60573a97.39326 90.78262 0 0 0-12.45296 9.06244c-.30444.25303-.60886.51374-.90487.77439a102.67519 95.70604 0 0 0-22.29891 28.45259 99.70961 92.94175 0 0 0-5.46178 13.17205c-2.01538 6.23331-3.66849 13.14135-7.65788 18.23995a17.10385 15.94292 0 0 1-1.33262 1.53343h-36.05194c-.0819-.0383-.16427-.069-.2466-.10733l-1.43945.0613c.0578-.23768.12331-.48303.18114-.7207.0329-.13801.0739-.27601.1068-.41401.0245-.092.0494-.18405.0659-.26832.008-.0307.0164-.0613.0244-.0843.0165-.0843.0414-.16102.0578-.23767q.5428-2.05861 1.11854-4.11721c0-.008 0-.008.008-.0153a146.61125 136.65991 0 0 1 12.33808-30.19299c.16467-.28367.32898-.57503.51007-.85871a95.14581 88.68773 0 0 1 8.5463-12.0833 84.11053 78.40147 0 0 1 5.60154-5.97264 69.94581 65.19819 0 0 1 17.50345-12.22134c12.93054-6.36366 27.90046-8.80179 41.71936-4.91458.35343.0996.69923.19917 1.05267.30658l.00016-.00006z"/>
    <path fill="#fff" d="M1140.10355 645.19221a87.08196 81.17121 0 0 0-46.79231 24.32626 37.50045 34.95508 0 0 0-6.72882 8.97826 21.50816 20.04828 0 0 0-1.73505 10.42667c.33019 3.32466 1.08098 6.68978.53841 10.03136a13.16952 12.27562 0 0 1-5.95918 8.36256c-3.84633 2.39654-8.38707 3.36186-12.86281 4.16212-4.96937.88848-10.14611 1.73795-14.29354 4.6313-.50253.35061-1.05672-.39674-.55496-.74678 7.21585-5.03393 16.88563-3.97757 24.7795-7.5313 3.68341-1.65824 6.85303-4.36121 7.76551-8.20322.79792-3.35967.0268-6.83043-.33865-10.19401a22.95106 21.39324 0 0 1 1.28898-10.25397 34.66849 32.31534 0 0 1 6.33368-9.18627 84.48542 78.75092 0 0 1 20.38434-15.6453 88.6263 82.61073 0 0 1 28.10003-10.06358c.61364-.11342.68445.79323.0749.90591l-.00003-.00001z"/>
    <path fill="#fff" d="M1097.07164 665.27618a13.06507 12.17826 0 0 1 .29941-15.76712c.41599-.43736 1.16465.14465.74811.58259a12.09794 11.27679 0 0 0-.24635 14.66727c.39981.45036-.40365.96505-.80117.51729v-.00003zm-12.62988 21.98204a25.18186 23.47263 0 0 0 17.71039-4.48292c.50385-.3489 1.05819.39831.55496.74678a26.19303 24.41516 0 0 1-18.43948 4.62998c-.6245-.0647-.44701-.95819.17411-.89384h.00002zm36.33552-36.53738a7.39548 6.8935 0 0 0 5.81 3.66836c.62507.0573.44691.95074-.1741.89382a8.2872 7.7247 0 0 1-6.43707-4.04489.50366.46948 0 0 1 .12311-.63204.48977.45652 0 0 1 .67806.11475z"/>
    <path fill="#f0f0f0" d="M1301.25856 544.35357c-17.6832-36.45903-17.0312-82.67257 10.4124-113.43829a197.774 184.34995 0 0 0 70.78688 108.0092c14.1291 10.39913 31.0056 20.59416 34.8654 36.98477 2.4018 10.19858-1.0025 20.98581-6.8878 29.8696-5.8859 8.88408-14.0898 16.19205-22.2005 23.39418l-.91 2.46469c-35.29218-22.7762-68.38328-50.82509-86.06638-87.28415z"/>
    <path fill="#fff" d="M1312.43486 431.36013a169.04358 157.56963 0 0 0 13.7275 96.09808 72.79609 67.85501 0 0 0 12.5877 17.72924 41.75174 38.91781 0 0 0 18.9562 10.35927c6.67468 1.81653 13.72788 2.95417 19.81258 6.25147a25.56466 23.82944 0 0 1 11.9444 15.99477c1.8972 8.18246.527 16.51233-1.1166 24.61484-1.825 8.9963-3.8734 18.31368-1.2289 27.35734.3205 1.09576-1.5223 1.49513-1.8423.40101-4.6009-15.73442 4.3445-31.25277 3.0941-47.072-.5834-7.38155-3.5569-14.64393-10.347-18.92075-5.9375-3.73989-13.2098-4.91877-19.98508-6.70366a44.55235 41.52833 0 0 1-18.9399-9.48542 67.29806 62.73015 0 0 1-13.2725-17.2127 164.00248 152.8707 0 0 1-15.7569-45.46541 172.04135 160.36392 0 0 1 .5589-54.46654c.2181-1.11357 2.0246-.58582 1.8079.52047l-.0001-.00001z"/>
    <path fill="#fff" d="M1320.62906 518.10336a25.36193 23.64047 0 0 1-30.3237-11.75388c-.5502-1.01209 1.1112-1.85664 1.6622-.84322a23.48456 21.89053 0 0 0 28.2313 10.87983c1.1575-.35145 1.5811 1.36783.4302 1.71727zm33.5627 36.93776a48.88306 45.56509 0 0 0 3.9542-33.0013c-.3163-1.09679 1.5264-1.49648 1.8423-.40102a50.84573 47.39454 0 0 1-4.1896 34.33305c-.5709 1.00474-2.1748.0686-1.607-.93073h.0001zm-44.8388-87.21445a14.35606 13.38163 0 0 0 11.2503-7.15953c.557-1.01099 2.1603-.0736 1.607.93073a16.08709 14.99517 0 0 1-12.4271 7.94606.97773.91137 0 0 1-1.1362-.65812.95073.8862 0 0 1 .706-1.05914z"/>
    <path fill="#f0f0f0" d="M1457.00724 431.27239c-.3285.6405-.657 1.28099-.9779 1.9346a189.0609 176.22826 0 0 0-10.7922 26.75846c-.2296.70631-.451 1.42533-.6584 2.13632a199.31338 185.78485 0 0 0-6.0545 68.16705 193.55715 180.41932 0 0 0 5.2506 26.97254c3.4279 12.22717 8.1882 25.2303 7.114 37.43951a33.20558 30.95173 0 0 1-.543 3.79719l-59.7246 34.00334c-.1773.0138-.3471.0406-.525.0548l-2.318 1.45928c-.1622-.44829-.3201-.91649-.4823-1.36479-.095-.25968-.1772-.52693-.2724-.78661-.059-.17552-.118-.35149-.1823-.50672-.02-.0584-.039-.11709-.051-.16281-.064-.15523-.1063-.30577-.1622-.44829q-1.3354-3.92226-2.6164-7.87566c-.01-.0127-.01-.0127 0-.033-6.4518-20.0975-11.1603-40.87362-12.3361-61.65541-.035-.62526-.079-1.26285-.087-1.90364a184.69755 172.16108 0 0 1 1.0411-28.07821 163.28134 152.1985 0 0 1 2.7961-15.17766 135.77923 126.56312 0 0 1 15.7299-36.75498c14.5129-22.73794 36.6659-40.89633 63.7783-47.49033.6937-.1683 1.3747-.32941 2.0767-.48492l-.0034-.00006z"/>
    <path fill="#fff" d="M1457.33594 432.0554a169.04346 157.56952 0 0 0-51.1102 84.43284 72.79591 67.85484 0 0 0-1.4009 21.22008 41.75172 38.91779 0 0 0 8.4443 18.90951c4.1561 5.19627 9.0528 10.06287 11.7814 16.11032a25.56465 23.82943 0 0 1-.7942 19.47419c-3.7704 7.59791-10.2448 13.4799-16.7906 19.02687-7.2679 6.1589-14.9217 12.4487-18.6516 21.15366-.4519 1.05473-2.1813.3394-1.73-.71373 6.4894-15.14513 23.6553-22.51545 32.8748-35.84795 4.302-6.22119 6.6187-13.68852 3.9596-20.91391-2.3252-6.31829-7.3701-11.34079-11.627-16.56822a44.55247 41.52844 0 0 1-8.9957-18.20275 67.29789 62.73 0 0 1 .5205-21.192 164.00237 152.87059 0 0 1 16.7856-45.14439 172.04147 160.36404 0 0 1 35.6267-43.17484c.8935-.76662 1.995.66854 1.1074 1.43019l-.0001.00013z"/>
    <path fill="#fff" d="M1407.85024 505.91366a25.36189 23.64044 0 0 1-16.6198-26.40258c.2143-1.11689 2.0864-.85883 1.8717.25955a23.48458 21.89054 0 0 0 15.5138 24.53045c1.1512.36898.3789 1.97945-.7657 1.61258zm2.9394 48.32819a48.883 45.56503 0 0 0 24.4731-24.13054c.456-1.0532 2.1854-.33821 1.73.71373a50.84575 47.39456 0 0 1-25.5212 25.06175c-1.1048.48182-1.7807-1.16571-.6819-1.64495v.00001zm20.5315-94.79949a14.35609 13.38166 0 0 0 13.6071.59722c1.0978-.49465 1.7725 1.15353.6819 1.64494a16.08712 14.99519 0 0 1-15.0547-.62959.97772.91135 0 0 1-.4822-1.16315.95072.88619 0 0 1 1.2479-.44942z"/>
    <path fill="#3f3d56" d="m1571.87092 586.57131 67.17928-47.5418 32.74421 30.52281-109.43966 69.80763 9.51617-52.78864z"/>
    <path fill="#3f3d56" d="M1509.21524 717.47677h-229.80318l8.0598-24.34234c49.9535-16.85604 21.8945-53.08715 69.4118-75.23315 116.22458-54.16789 161.21988-215.81048 144.20078-279.70825l76.1644-3.00182s105.1835 278.43048-68.0336 382.28556z"/>
    <path fill="#57b894" d="M1705.40134 603.05042a38.62606 36.00429 0 0 1-49.9126.87042l-.1493-.11438v-.17902a37.00895 34.49694 0 0 0-1.4837-8.80429 26.43912 24.64454 0 0 1-.96 6.0941l-.1925.66827-.5162-.49672c-.4458-.42852-.8773-.86381-1.2825-1.29322a38.95229 36.30838 0 0 1-5.9326-8.37398 113.55224 105.8448 0 0 0-31.5066-36.60552 55.12952 51.38756 0 0 1-6.6097-5.92827 54.49117 50.79254 0 0 1 68.4277-77.38262l.3405.1858-.1768.3285a28.38415 26.45756 0 0 1-5.0644 6.8094 37.01662 34.50409 0 0 0 7.7998-5.25269l.2474-.2175.2804.18022a54.72277 51.00842 0 0 1 9.9648 8.26797l.3177.33945a24.32576 22.67463 0 0 0 18.0129 7.74822 38.61398 35.99303 0 0 1 37.3909 42.16831l-.044.2378-.2482.07a33.13538 30.88629 0 0 1-13.4951 1.56955 37.6447 35.08954 0 0 0 12.0204 2.80632l.5355.0396-.17.4753a38.58818 35.96898 0 0 1-11.137 15.65201l-.1466.11957c-.052.0421-.104.0847-.1556.12699a37.91875 35.34499 0 0 0-13.0998 24.53331 38.90935 36.26835 0 0 1-13.0499 25.35702l-.0049.00008z"/>
    <path d="M1712.43094 591.47951a38.51479 35.90057 0 0 1-.4343 3.87031 39.03756 36.38786 0 0 0 6.2759-18.02754c.051-.98288.1619-1.96195.3103-2.93666a36.63579 34.14911 0 0 0-6.1519 17.09389zm12.1531-43.75308a37.58689 35.03565 0 0 0 9.6057 2.53159 38.65351 36.02987 0 0 0 3.5197-4.00287 32.75211 30.52904 0 0 1-13.1254 1.47128zm14.1558-11.82123a38.84904 36.21214 0 0 1-.2748 9.34038 38.40336 35.79671 0 0 0 4.3465-8.35523l.1701-.47531-.5356-.0396a37.32535 34.79187 0 0 1-3.7062-.47022v-.00002zm-3.5734-34.16531a38.70477 36.07766 0 0 0-28.3446-12.21646 24.32583 22.6747 0 0 1-18.0131-7.74824l-.3176-.33946a54.72388 51.00946 0 0 0-9.9648-8.26795l-.2804-.18021-.2474.21749a37.01609 34.5036 0 0 1-7.7999 5.25268 28.38571 26.45901 0 0 0 5.0646-6.8094l.1767-.32848-.3404-.18578a54.45065 50.75477 0 0 0-80.6731 32.8584 54.46069 50.76413 0 0 1 74.8315-18.70113l.3404.18578-.1767.32849a28.38543 26.45875 0 0 1-5.0647 6.8094 37.01526 34.50282 0 0 0 7.8-5.25268l.2474-.21748.2804.1802a54.72388 51.00946 0 0 1 9.9648 8.26796l.3176.33945a24.32587 22.67473 0 0 0 18.013 7.74824 38.62066 35.99925 0 0 1 37.3514 29.58663 46.80561 43.62864 0 0 0 5.5892-1.26776l.2481-.07.044-.23775a38.46556 35.85469 0 0 0-9.0459-29.95193l-.0005-.00001z" opacity=".15"/>
    <path fill="#57b894" d="M1816.47154 353.51955a124.37229 115.93044 0 0 1-103.8846 114.33579l-.6143.0935-.4753-.36919a119.16462 111.07624 0 0 0-25.9918-15.37919 85.1302 79.35192 0 0 1 13.7654 15.12297l1.324 1.85497-2.3861.10699c-2.0595.0935-4.1062.14014-6.0816.14014a125.42158 116.9085 0 0 1-34.3367-4.43776c-50.7404-13.45645-105.2281-15.75745-161.9483-6.83971a177.50949 165.46091 0 0 1-29.4327 2.28895c-96.7126 0-175.39438-73.35627-175.39438-163.52176a175.15044 163.26198 0 0 1 120.19538-155.249l1.206-.3722.4761 1.097a91.39492 85.19143 0 0 1 6.8924 25.89418 119.19034 111.10022 0 0 0 2.9624-28.7482l-.038-1.02015 1.0638-.24864a176.20266 164.24278 0 0 1 42.6363-4.87474l1.556.006a78.32652 73.01005 0 0 0 58.4031-24.11756 124.33337 115.89416 0 0 1 188.8906 5.40818l.5237.60428-.3459.70823c-7.265 14.92562-15.1799 25.79924-24.6274 33.75103a121.21167 112.98435 0 0 0 32.8414-21.12189l1.2415-1.12263.8714 1.39387a124.25027 115.8167 0 0 1 16.9146 58.38393v1.2055c0 31.38075 13.0184 61.1234 35.7771 81.69383a125.28421 116.78045 0 0 1 38.0192 83.33333l-.0033-.00005z"/>
    <path d="M1664.45323 79.61068a87.84003 81.87783 0 0 1-15.66689 17.91485 120.90476 112.69826 0 0 0 24.47864-14.26096q-4.32664-1.98668-8.81175-3.65389zm71.97576 138.34751a124.84444 116.37054 0 0 1 17.87951 20.30339 127.09642 118.46966 0 0 1-11.63324-49.7692v-1.20551a124.25109 115.81746 0 0 0-16.9113-58.38393l-.87138-1.39389-1.24163 1.12261a121.49104 113.24475 0 0 1-22.67877 16.09695c2.11659 28.21845 14.75564 54.51879 35.45681 73.22958zm-35.77391-82.89934-.00121.58469c-.00121.2064-.00121.41435-.00121.62081 0 1.13771.02214 2.27254.05624 3.40563a129.49999 120.71009 0 0 0 14.72903-23.66741l.34591-.70827-.5237-.60428a125.3523 116.84392 0 0 0-22.49478-20.27939 124.53249 116.07976 0 0 1 7.89054 40.64822h-.00082zm77.79728 135.12735a112.42278 104.79201 0 0 1-15.84816-17.97265 124.21967 115.78817 0 0 1-92.04057 163.4137l-.61433.09346-.47524-.3692a119.17045 111.08167 0 0 0-25.99182-15.37921 85.12772 79.34961 0 0 1 13.76532 15.12298l1.32406 1.855-2.38604.10698c-2.05968.09347-4.10618.14015-6.08168.14015a125.42134 116.90828 0 0 1-34.33676-4.43776c-50.7404-13.45638-105.22808-15.75745-161.94825-6.83968a177.51252 165.46374 0 0 1-29.43266 2.28891 174.65523 162.80038 0 0 1-116.52939-41.42173 175.61293 163.69308 0 0 0 158.55277 93.64974 177.51136 165.46265 0 0 0 29.43266-2.2889c56.72016-8.91771 111.20784-6.6167 161.94824 6.83968a125.42091 116.90788 0 0 0 34.33677 4.43777c1.97543 0 4.02199-.04668 6.08167-.14016l2.38605-.10699-1.32407-1.855a85.12772 79.34961 0 0 0-13.76533-15.12298 119.16992 111.08118 0 0 1 25.99183 15.37917l.47525.3692.61432-.09346a124.27956 115.844 0 0 0 65.86536-197.66907v.00005z" opacity=".15"/>
    <path fill="#57b894" d="M1193.25426 324.18789c-6.6932-6.72229-10.1642-16.80983-6.6052-25.35998a45.33259 42.2556 0 0 0 23.8272 18.66481c3.8835 1.30028 8.3482 2.36958 10.4684 5.66947a10.13364 9.44581 0 0 1 .8381 6.95919 30.0956 28.05284 0 0 1-2.9959 6.59202v.59743c-9.4503-2.55263-18.8344-6.40066-25.5276-13.12294h-.005zm332.45158 194.98459c-6.6931-6.72228-10.1642-16.80981-6.6052-25.35996a45.33264 42.25566 0 0 0 23.8273 18.66484c3.8835 1.30028 8.3482 2.36958 10.4683 5.66946a10.13364 9.44581 0 0 1 .8382 6.95919 30.0956 28.05284 0 0 1-2.9959 6.59202v.59743c-9.4503-2.55265-18.8345-6.40069-25.5276-13.12298h-.0051zm156.7635 125.84635c-4.6757-8.06953-5.3284-18.64575.4127-26.0938a45.33262 42.25564 0 0 0 18.0588 23.62846c3.4109 2.1647 7.4465 4.24131 8.6134 7.93073a10.13366 9.44583 0 0 1-1.0566 6.93329 30.09625 28.05345 0 0 1-4.6702 5.68357l-.1653.57722c-8.4644-4.67557-16.5171-10.58993-21.1928-18.65947zm112.9962-155.8136c-4.6757-8.06953-5.3283-18.64575.4127-26.0938a45.33259 42.2556 0 0 0 18.0587 23.62846c3.411 2.1647 7.4466 4.24132 8.6135 7.93073a10.13371 9.44588 0 0 1-1.0566 6.93331 30.09574 28.05297 0 0 1-4.6702 5.68356l-.1652.57722c-8.4645-4.67558-16.5171-10.58993-21.1929-18.65948z"/>
    <path fill="#e6e6e6" d="M1478.99874 626.5446c4.0606-30.43609 24.2968-60.42442 55.4373-70.32919a151.60099 141.31097 0 0 0 .01 97.01948c4.7851 12.06495 11.4549 25.01968 6.9539 37.17933-2.8004 7.56608-9.6514 13.35478-17.3094 16.97432-7.6586 3.61952-16.1579 5.34466-24.5509 7.03528l-1.6517 1.27339c-13.3235-28.0435-22.9472-58.71654-18.8865-89.15261h-.0027z"/>
    <path fill="#fff" d="M1534.74504 556.79092a129.57782 120.78263 0 0 0-32.2129 67.9765 55.80084 52.01332 0 0 0 .6348 16.286 32.00419 29.83188 0 0 0 7.9598 13.83664c3.5877 3.67424 7.714 7.04532 10.281 11.46849a19.59618 18.26607 0 0 1 .9573 14.91177c-2.2664 6.05923-6.7333 10.99802-11.2817 15.68625-5.0501 5.20537-10.3841 10.53754-12.5307 17.43848-.2601.83615-1.6368.41107-1.3771-.42382 3.7348-12.00646 16.2386-18.82637 22.2017-29.64043 2.7824-5.04604 3.9503-10.90426 1.3418-16.23088-2.2811-4.65789-6.5329-8.13756-10.2-11.82852a34.15084 31.83282 0 0 1-8.3238-13.25896 51.58606 48.08462 0 0 1-1.3041-16.20315 125.71375 117.18084 0 0 1 9.1814-35.6103 131.87561 122.92446 0 0 1 23.7129-35.42187c.6201-.6472 1.5756.37084.9596 1.01382v-.00002z"/>
    <path fill="#fff" d="M1502.92254 616.58702a19.44083 18.12127 0 0 1-14.7983-18.98269c.074-.86696 1.5227-.8007 1.4487.0674a18.00179 16.77991 0 0 0 13.8043 17.63164c.9078.2012.4479 1.48364-.4547 1.2836v.00005zm6.1219 36.66343a37.4706 34.92726 0 0 0 16.7329-20.11555c.2632-.83525 1.64-.41042 1.377.42382a38.97512 36.32966 0 0 1-17.4577 20.89902c-.8041.44463-1.452-.76512-.6522-1.20733v.00004zm8.053-73.75226a11.00446 10.25753 0 0 0 10.4285-.49345c.7977-.45392 1.4448.75638.6522 1.20733a12.33138 11.49438 0 0 1-11.5354.56972.74945.69858 0 0 1-.4612-.85371.72877.67931 0 0 1 .9159-.42989z"/>
    <path fill="#e6e6e6" d="M1629.35664 610.57795c-.4894.29664-.9789.59328-1.4689.90132a144.92235 135.08564 0 0 0-18.5301 13.48494c-.453.37655-.906.76442-1.3464 1.15228a152.78083 142.41072 0 0 0-33.1808 42.33746 148.36887 138.29823 0 0 0-8.1272 19.6c-2.9988 9.27522-5.4587 19.55433-11.3949 27.14109a25.45247 23.72487 0 0 1-1.9829 2.28173h-53.6453c-.1219-.0571-.2444-.10271-.3669-.15974l-2.1419.0913c.086-.35366.1835-.71874.2695-1.07242.049-.20534.11-.41068.159-.61603.036-.1369.073-.27387.098-.39935.012-.0457.024-.0912.036-.12547.024-.12548.062-.23961.086-.35366q.8077-3.06319 1.6644-6.12644c0-.0114 0-.0114.012-.0229 4.3943-15.55001 10.22-30.89457 18.359-44.92717.245-.4221.4895-.85568.759-1.27775a141.57701 131.96737 0 0 1 12.7169-17.98 125.16027 116.66493 0 0 1 8.3351-8.8873 104.07994 97.01544 0 0 1 26.0452-18.18535c19.2405-9.46915 41.5159-13.09708 62.0784-7.3129.5259.14829 1.0404.29654 1.5663.45628l.0005.00008z"/>
    <path fill="#fff" d="M1629.23604 611.2126a129.57801 120.78281 0 0 0-69.6269 36.19747 55.80071 52.01319 0 0 0-10.0125 13.35966 32.00418 29.83187 0 0 0-2.5818 15.51488c.4914 4.94709 1.6085 9.95439.8012 14.92665a19.59626 18.26615 0 0 1-8.8673 12.44351c-5.7233 3.56604-12.4799 5.00252-19.1397 6.19322-7.3945 1.32207-15.0974 2.58608-21.2688 6.89137-.7478.52165-1.5724-.59036-.8258-1.11121 10.7372-7.49049 25.1258-5.91862 36.8719-11.20657 5.4809-2.46745 10.1973-6.48949 11.5551-12.20639 1.1873-4.9992.04-10.16368-.504-15.1687a34.15094 31.83292 0 0 1 1.918-15.2579 51.58628 48.08482 0 0 1 9.4246-13.66918 125.71365 117.18075 0 0 1 30.3318-23.28017 131.87585 122.92469 0 0 1 41.8129-14.97461c.9132-.16878 1.0185 1.18037.1113 1.34799v-.00002z"/>
    <path fill="#fff" d="M1565.20464 641.09754a19.44082 18.12126 0 0 1 .4455-23.46148c.619-.65078 1.733.21526 1.1131.86691a18.00179 16.77991 0 0 0-.3665 21.82486c.5949.67013-.6006 1.43602-1.1921.76971zm-18.7933 32.70929a37.47062 34.92728 0 0 0 26.3531-6.67059c.7497-.51916 1.5746.59268.8258 1.11122a38.97509 36.32963 0 0 1-27.438 6.88944c-.9292-.0963-.6651-1.42577.2591-1.33002v-.00005zm54.0672-54.36763a11.00445 10.25752 0 0 0 8.6453 5.45852c.9301.0852.665 1.41472-.259 1.33002a12.33137 11.49437 0 0 1-9.5784-6.01883.74945.69858 0 0 1 .1832-.94046.72875.67928 0 0 1 1.0089.17075z"/>
    <path fill="#3f3d56" d="m1206.70276 630.71742-44.52454-31.50926-21.70167 20.22866 72.53364 46.26672-6.30743-34.98612z"/>
    <path fill="#3f3d56" d="M1248.22836 717.47677h152.30548l-5.3417-16.13323c-33.1075-11.1716-14.511-35.1843-46.00368-49.86196-77.0296-35.90057-106.8509-143.03162-95.5713-185.38082l-50.4791-1.98951s-69.71197 184.534 45.0903 253.36552z"/>
    <path d="M1113.54409 633.97019a25.52452 23.79202 0 0 0 .28785 2.56507 25.87263 24.11651 0 0 1-4.15939-11.94801c-.034-.65142-.10728-1.30032-.20569-1.94631a24.28087 22.63279 0 0 1 4.07723 11.32925zm-8.05466-28.998a24.9114 23.22052 0 0 1-6.36633 1.67784 25.61822 23.87936 0 0 1-2.3327-2.65296 21.7071 20.23372 0 0 0 8.69903.97512zm-9.38195-7.83471a25.74803 24.00037 0 0 0 .18214 6.19047 25.45213 23.72455 0 0 1-2.88074-5.53756l-.11272-.31502.35493-.0263a24.73665 23.05764 0 0 0 2.45634-.31163l.00005.00004z" opacity=".15"/>
    <path fill="#e4e4e4" d="M733.08015 717.10301a1.01551.94659 0 0 1-1.00415-.81322c-.0432-.28257-4.26931-28.69334-.47373-66.45245 3.50522-34.87144 14.76192-85.0986 48.48262-126.34934a1.0156.94666 0 1 1 1.61558 1.14755c-33.42944 40.89454-44.59539 90.75314-48.07592 125.37837-3.7735 37.5394.41952 65.72861.46234 66.00903a1.01647.94748 0 0 1-1.00674 1.08003v.00003z"/>
    <path fill="#3f3d56" d="M749.93703 578.03294a1.01557.94664 0 0 1-.59787-1.7124 139.97111 130.47047 0 0 1 30.90047-14.66236c17.04837-5.81787 42.97296-11.09216 69.66186-3.17456a1.01545.94653 0 1 1-.61588 1.8039c-26.14211-7.75489-51.59677-2.5678-68.34763 3.14868a137.67087 128.32637 0 0 0-30.4048 14.41586 1.0116.94293 0 0 1-.59615.18088z"/>
    <path fill="#e6e6e6" d="M1262.39926 631.56652c-4.6757-8.06955-5.3284-18.64581.4126-26.09382a45.33259 42.2556 0 0 0 18.0589 23.62847c3.4109 2.1647 7.4465 4.24132 8.6134 7.93073a10.13365 9.44582 0 0 1-1.0567 6.9333 30.09653 28.05371 0 0 1-4.6701 5.68357l-.1653.57722c-8.4644-4.67557-16.5171-10.58993-21.1928-18.65947z"/>
    <path fill="#57b894" d="M1140.01255 531.3716c0-.60093 1.78579-3.07589 3.96842-5.49993 5.22395-5.80176 1.9667-5.66198-7.15017.30688-8.663 5.67169-10.25581 5.74671-22.4032 1.05512-13.94475-5.38575-22.78727-11.39033-32.98429-22.39816-14.28574-15.42169-21.08991-33.09348-21.1267-54.87015-.037-21.94209 7.1375-38.99628 25.02843-59.49364 13.09222-14.99956 19.51946-27.08106 22.48227-42.26064 1.5217-7.79628 2.1518-8.9106 4.57571-8.09201 2.65801.89762 2.6437.7055-.26288-3.52995-2.79703-4.07579-2.9438-5.43935-1.62968-15.13942 2.09521-15.4655 4.61123-20.80505 11.58789-24.59216 3.71052-2.01421 6.28513-2.62731 6.86202-1.63412.95222 1.63939 15.48271 9.92177 15.48271 8.82514 0-.33805-2.34475-3.33843-5.21055-6.66748l-5.21054-6.05285 5.57975-2.17241c3.06887-1.19481 12.22555-2.52014 20.3482-2.94517 25.70285-1.34491 45.04507 6.08344 65.05695 24.98505 14.72776 13.91068 22.21407 17.0988 44.0461 18.75748 9.84802.74822 19.89926 1.94077 22.33604 2.65014 4.18689 1.21883 4.47113 1.8169 5.16896 10.87594.88339 11.46813 2.23053 13.65312 3.60641 5.8494.55403-3.14225 1.711-7.35649 2.57108-9.36498 1.5029-3.50977 1.79001-3.56687 7.37961-1.46849 33.47828 12.56813 62.30705 44.97723 71.29675 80.15132 2.9632 11.59438 4.7621 43.462 2.7245 48.26624-.8119 1.91449-3.0448 8.78437-4.9621 15.26642-4.4081 14.90393-8.9969 19.67707-28.91027 30.07181-25.53736 13.33057-46.63901 16.30433-81.08895 11.42742-12.93787-1.83155-25.16465-2.31071-45.7208-1.79176-24.39586.61589-30.83864 1.35277-49.33842 5.64296-20.17597 4.67892-34.10325 6.24793-34.10325 3.842zm-143.88101-96.10841c-7.8797-5.71438-14.98165-14.06505-16.02834-18.84657-.47652-2.17682-1.14427-4.84269-1.4839-5.92414-.33962-1.08146.0831-4.56795.9393-7.74777l1.55679-5.78149 4.61506 7.65441c2.67703 4.44007 8.26568 10.4786 13.30839 14.3797 4.78134 3.6989 8.89156 8.06461 9.13382 9.70157.24227 1.63697-1.06601 4.7277-2.90729 6.86832l-3.34778 3.89202-5.78605-4.19605zm124.76195 201.83716c-6.64197-3.46321-9.421-6.5164-9.421-10.35037 0-4.39507-6.5491-18.95223-10.38667-23.08723-2.67627-2.88368-2.70951-3.2244-.43861-4.49526 2.05542-1.15028 1.71991-1.52253-2.05214-2.27694-5.04399-1.0088-6.42401-6.05701-1.97371-7.22 2.36162-.61715 2.36409-.67412.0358-.83068-2.11607-.14231-2.26871-.77955-.99449-4.15251 3.4007-9.00205 10.33775-13.46237 24.30912-15.63007 4.20942-.65311 8.11095-2.59406 11.66065-5.801 3.84667-3.47523 5.92142-4.4483 7.43842-3.48864 3.1996 2.0241 4.84382 1.63054 2.9121-.69704-2.87644-3.4659 3.61655-5.85588 15.96754-5.87744 9.69891-.0168 11.79619.48809 17.97164 4.32751 9.63279 5.98889 12.82439 10.69796 12.82439 18.92175 0 6.75244-6.96352 23.74552-9.75153 23.79666-3.36817.0618-14.55031 11.38922-21.11593 21.39031-4.00766 6.10466-7.30974 10.15157-7.33797 8.99313-.0294-1.20443-.87312-.62362-1.97061 1.35648-1.05558 1.9045-3.47748 4.32641-5.38198 5.382-4.74696 2.63103-17.02453 2.48749-22.29509-.26066h.00007z"/>
    <path fill="#4a9d7e" d="M1122.65729 547.1328c2.74016-2.87717 4.64642-5.57285 4.23613-5.99042-.41029-.41754-4.67914 1.66093-9.48636 4.61886-8.57893 5.27869-8.88389 5.34568-16.50789 3.6257-11.0568-2.49439-26.87406-10.95888-35.90548-19.21453-32.91509-30.08784-33.51695-81.33598-1.31714-112.15326l6.27361-6.00424-1.00066 4.50318c-2.12573 9.56627-2.60311 28.90302-.91753 37.16611 4.42421 21.6885 21.4442 43.45849 41.94983 53.65731 6.5777 3.27152 15.1632 6.7882 19.07892 7.81486 6.57849 1.72481 7.56889 1.6034 13.03389-1.59752 6.03114-3.53253 9.0202-3.68479 4.95645-.25249-1.23642 1.04431-2.24806 2.59186-2.24806 3.43897 0 2.0963 21.89938.322 32.72823-2.65165 25.31824-6.95249 69.44247-8.83293 102.29116-4.35936 20.00472 2.72437 37.80238 2.15296 53.26093-1.71004 10.77305-2.69212 31.55252-11.90656 38.96672-17.27941 2.4697-1.78968 4.8032-2.9355 5.1857-2.54628 1.2409 1.26299-12.5315 18.70833-20.95483 26.54304-25.89377 24.08437-67.99816 36.38216-102.19282 29.84833-27.04359-5.1674-69.17265-3.83305-101.67808 3.22049-11.54157 2.50447-24.07846 4.55358-27.85974 4.55358h-6.87508l4.9821-5.23123z"/>
    <path fill="#4a9d7e" d="M1092.83235 588.34948c1.44095-10.74309 10.49044-19.14332 22.4986-20.88444 8.0142-1.16203 11.24254-2.62562 16.40869-7.43902 3.20722-2.98822 4.33689-3.30754 6.88222-1.94532 3.21808 1.72227 4.41848-.35024 1.31411-2.26885-2.86862-1.77289 7.45251-4.66906 16.94441-4.75466 10.29614-.0929 18.22274 3.0965 24.99335 10.0564 6.15118 6.32316 5.99575 7.97418-.34558 3.67084-10.35296-7.02571-26.76699-8.26193-37.35052-2.81305-2.57617 1.32631-7.38737 4.62044-10.69159 7.32027-4.33133 3.53906-8.299 5.2817-14.21939 6.24527-10.64255 1.73211-17.34696 5.9844-20.61487 13.075-3.62206 7.85904-6.88899 7.7117-5.81943-.26244z"/>
    <path fill="#57b894" d="M1074.58801 578.47866c-14.03468-10.17802-19.93538-21.83701-16.63201-32.86265l1.74551-5.82603 2.90628 5.76877c3.72536 7.39464 7.28932 11.30203 16.69863 18.30776 8.47014 6.30645 9.31289 9.22252 4.33715 15.00715l-3.26951 3.80104-5.78605-4.19604z"/>
    <path fill="#fbbebe" d="M377.9256 449.82115s117.66268-14.11952 158.84462-36.47543 347.10492-32.94555 347.10492 36.47543-351.81142 100.01328-351.81142 100.01328L347.3333 539.2448l30.5923-89.42365z"/>
    <path d="M377.9256 449.82115s117.66268-14.11952 158.84462-36.47543 347.10492-32.94555 347.10492 36.47543-351.81142 100.01328-351.81142 100.01328L347.3333 539.2448l30.5923-89.42365z" opacity=".1"/>
    <path fill="#78909c" d="m412.04778 436.87825-24.70916 71.77424L.22839 513.359V407.46258s148.255-34.12218 265.91766 38.82869c0 0 138.84197-16.47278 145.90173-9.41302z"/>
    <path d="m412.04778 436.76256-24.70916 71.77424L.22839 513.24331V407.34689s148.255-34.12217 265.91766 38.82869c0 0 138.84197-16.47278 145.90173-9.41302z" opacity=".1"/>
    <path fill="#3f3d56" d="M854.6326 406.87427c0 4.01013-8.99291 6.98746-9.87713 10.85578-.877 3.837 4.466 9.67153 2.7754 13.33593a72.56315 72.56315 0 0 1-6.17161 10.73274c-2.21493 3.17137-9.05694 2.70824-11.86227 5.68227a94.31858 94.31858 0 0 1-8.71239 7.57632c-2.97685 2.47558-7.00983 2.995-10.3949 5.27405-3.21855 2.16694-2.82908 10.11566-6.38943 12.089-3.40209 1.88559-8.60988.3689-12.30036 2.0638-3.54222 1.6268-5.41036 7.51078-9.19734 8.94966-3.65224 1.38768-8.17251.79041-12.03369 1.99233-3.737 1.16328-7.91819.97444-11.834 1.95379-3.8025.951-6.70671 6.651-10.66232 7.41945-3.854.74876-8.3706-1.24829-12.35568-.68116-3.89167.55383-8.41763-4.37162-12.421-3.9988-3.91842.36491-7.61086 2.64509-11.62382 2.8293-3.93486.18062-7.825 1.91354-11.839 1.91354-4.01326 0-8.155 3.76516-12.0891 3.58461-4.01286-.18416-7.64576-5.89119-11.56409-6.25606-4.00373-.37281-8.7793 5.58855-12.67133 5.03469-3.98495-.56708-7.14123-6.40236-10.99514-7.15107-3.95666-.76866-9.06677 3.40179-12.87023 2.45052-3.9163-.97949-6.24086-7.76777-9.97832-8.93124-3.86105-1.20193-8.64707.42607-12.29918-.96161-3.78762-1.43918-8.40158-1.20794-11.94434-2.83511-3.69044-1.695-6.33948-5.70566-9.74152-7.59135-3.56035-1.97344-5.20212-6.86749-8.42064-9.03457-3.38534-2.2794-8.543-1.98843-11.52-4.46441-3.143-2.614-9.03152-2.75028-11.684-5.56266-2.80531-2.97446-3.94048-7.96872-6.15524-11.14054-2.3325-3.34045 2.24541-10.40268.61691-13.93333-1.68988-3.66373-8.75561-5.15233-9.63228-8.98856a56.43529 56.43529 0 0 1-1.38412-12.20727c0-4.01013 6.04275-7.07505 6.927-10.94337.87705-3.837-3.5706-9.34765-1.88-13.012 1.62909-3.53111 1.4209-8.95885 3.75419-12.29969 2.21492-3.17137 7.74247-4.41466 10.54781-7.38869 2.65244-2.81195 7.39972-3.59649 10.54257-6.21012 2.97685-2.47558 2.59756-9.94153 5.98263-12.22058 3.21855-2.16693 7.71233-3.15553 11.27269-5.12883 3.40209-1.88559 8.2166-1.568 11.90708-3.26286 3.54222-1.62681 9.09051 1.57878 12.87749.1399 3.65223-1.38768 6.61443-4.42066 10.47561-5.62258 3.737-1.16327 5.49295-10.03477 9.40878-11.01411 3.8025-.951 8.48123.62756 12.43684-.14094 3.854-.74875 9.03982 6.25065 13.0249 5.68353 3.89167-.55383 6.80233-9.89764 10.80568-10.27046 3.91843-.36492 8.33653 4.4746 12.34949 4.29039 3.93486-.18061 7.88586 2.65493 11.89989 2.65493 4.01325 0 8.012-3.89163 11.9461-3.71108 4.01286.18417 7.55113 5.3271 11.46946 5.692 4.00373.37281 8.91865-7.44985 12.81068-6.896 3.98495.56708 7.06419 6.61418 10.91811 7.36288 3.95665.76866 8.91232-2.98574 12.71579-2.03447 3.9163.97948 6.27257 7.40675 10.01 8.57021 3.861 1.20194 6.23986 5.73621 9.892 7.12389 3.78763 1.43917 10.82321-5.29424 14.366-3.66707 3.69044 1.695 6.878 4.62825 10.28005 6.51394 3.56035 1.97344 9.22033.981 12.43884 3.14809 3.38534 2.2794 4.21769 8.39757 7.1947 10.87355 3.143 2.614 8.32722 3.401 10.97967 6.21338 2.80531 2.97446 3.195 8.304 5.40974 11.47584 2.33251 3.34045 2.25969 7.96873 3.88819 11.49938 1.68988 3.66373 6.20167 6.43485 7.07833 10.27108.88371 3.86735 3.50185 8.30066 3.50185 12.30982z"/>
    <path fill="#fbbebe" d="M430.87381 480.41345s132.95883-68.24436 218.85258-42.35857c85.89375 25.88579 205.90969-18.826 220.02921-3.52988 14.11952 15.29612 34.12218 180.0239-135.31208 189.43692-169.43426 9.41302-314.15936-28.23905-314.15936-28.23905l10.58965-115.30942z"/>
    <path fill="#78909c" d="M399.56233 473.14551s52.49076-3.32171 50.13751 15.50429c-2.35325 18.826-4.70651 164.72776-18.826 168.25764-14.11949 3.52988-125.89907 3.52988-171.78752 3.52988H.22839V434.86316s183.55378-10.9278 275.33068 34.96064c0 0 110.34119-1.593 124.00326 3.32171z"/>
    <path fill="none" stroke="#3f3d56" stroke-miterlimit="10" d="M645.46777 120.31549a27.04128 27.04128 0 0 0-23.30891 16.29741c-5.82841 14.08872 1.67611 30.638 12.94175 40.91165 11.26564 10.27365 25.737 16.146 38.88553 23.86474 17.6606 10.3676 33.5301 24.75954 42.36669 43.23381 8.83659 18.47427 9.77646 41.35854-.61056 59.00773-9.64093 16.38147-27.17132 26.18572-43.89076 35.22786"/>
    <path fill="none" stroke="#3f3d56" stroke-miterlimit="10" d="M692.53285 34.42173a27.0413 27.0413 0 0 0-23.30892 16.29742c-5.82841 14.08871 1.67611 30.638 12.94175 40.91164 11.26564 10.27364 25.73705 16.146 38.88553 23.86474 17.66061 10.3676 33.5301 24.75955 42.3667 43.23382 8.8366 18.47427 9.77645 41.35853-.61057 59.00772-9.64092 16.38147-27.17132 26.18572-43.89076 35.22786"/>
    <path fill="none" stroke="#3f3d56" stroke-miterlimit="10" d="M847.27901 54.1768a27.04127 27.04127 0 0 0-28.40774-1.38242c-13.23342 7.57224-17.43052 25.25222-14.81179 40.27235 2.61873 15.02013 10.46668 28.52256 16.13823 42.67515 7.61783 19.00927 11.35579 40.10422 7.03358 60.12177-4.32221 20.01755-17.58823 38.688-36.60588 46.28493-17.65163 7.05125-37.51521 4.072-56.271.98658"/>
    <ellipse cx="710.91101" cy="218.02565" fill="#57b894" rx="28.23904" ry="13.71611"/>
    <ellipse cx="707.3811" cy="215.67241" fill="none" stroke="#3f3d56" stroke-miterlimit="10" rx="28.23904" ry="13.71611"/>
    <ellipse cx="772.09558" cy="206.2594" fill="#57b894" rx="28.23904" ry="13.71611"/>
    <ellipse cx="768.56573" cy="203.90615" fill="none" stroke="#3f3d56" stroke-miterlimit="10" rx="28.23904" ry="13.71611"/>
    <ellipse cx="781.5086" cy="258.03098" fill="#57b894" rx="28.23904" ry="13.71611"/>
    <ellipse cx="777.9787" cy="255.67772" fill="none" stroke="#3f3d56" stroke-miterlimit="10" rx="28.23904" ry="13.71611"/>
    <ellipse cx="775.62548" cy="128.60202" fill="#57b894" rx="28.23904" ry="13.71611"/>
    <ellipse cx="772.09558" cy="126.24877" fill="none" stroke="#3f3d56" stroke-miterlimit="10" rx="28.23904" ry="13.71611"/>
    <ellipse cx="705.02789" cy="120.36564" fill="#57b894" rx="28.23904" ry="13.71611"/>
    <ellipse cx="701.49798" cy="118.01238" fill="none" stroke="#3f3d56" stroke-miterlimit="10" rx="28.23904" ry="13.71611"/>
    <ellipse cx="736.79681" cy="90.94997" fill="#57b894" rx="28.23904" ry="13.71611"/>
    <ellipse cx="733.2669" cy="88.5967" fill="none" stroke="#3f3d56" stroke-miterlimit="10" rx="28.23904" ry="13.71611"/>
    <ellipse cx="806.21777" cy="96.8331" fill="#57b894" rx="28.23904" ry="13.71611"/>
    <ellipse cx="802.68786" cy="94.47984" fill="none" stroke="#3f3d56" stroke-miterlimit="10" rx="28.23904" ry="13.71611"/>
    <ellipse cx="857.98938" cy="135.66179" fill="#57b894" rx="28.23904" ry="13.71611"/>
    <ellipse cx="854.45947" cy="133.30853" fill="none" stroke="#3f3d56" stroke-miterlimit="10" rx="28.23904" ry="13.71611"/>
    <ellipse cx="675.61218" cy="67.41743" fill="#57b894" rx="28.23904" ry="13.71611"/>
    <ellipse cx="672.08233" cy="65.06418" fill="none" stroke="#3f3d56" stroke-miterlimit="10" rx="28.23904" ry="13.71611"/>
    <ellipse cx="693.26159" cy="22.70561" fill="#57b894" rx="28.23904" ry="13.71611"/>
    <ellipse cx="689.73169" cy="20.35236" fill="none" stroke="#3f3d56" stroke-miterlimit="10" rx="28.23904" ry="13.71611"/>
    <ellipse cx="856.81274" cy="55.65116" fill="#57b894" rx="28.23904" ry="13.71611"/>
    <ellipse cx="853.28283" cy="53.29791" fill="none" stroke="#3f3d56" stroke-miterlimit="10" rx="28.23904" ry="13.71611"/>
    <ellipse cx="596.77819" cy="163.90084" fill="#57b894" rx="28.23904" ry="13.71611"/>
    <ellipse cx="593.24829" cy="161.54758" fill="none" stroke="#3f3d56" stroke-miterlimit="10" rx="28.23904" ry="13.71611"/>
    <ellipse cx="694.43823" cy="156.84107" fill="#57b894" rx="28.23904" ry="13.71611"/>
    <ellipse cx="690.90832" cy="154.48781" fill="none" stroke="#3f3d56" stroke-miterlimit="10" rx="28.23904" ry="13.71611"/>
    <ellipse cx="822.69055" cy="167.43071" fill="#57b894" rx="28.23904" ry="13.71611"/>
    <ellipse cx="819.16064" cy="165.07746" fill="none" stroke="#3f3d56" stroke-miterlimit="10" rx="28.23904" ry="13.71611"/>
    <ellipse cx="754.44616" cy="172.13723" fill="#57b894" rx="28.23904" ry="13.71611"/>
    <ellipse cx="750.91632" cy="169.78396" fill="none" stroke="#3f3d56" stroke-miterlimit="10" rx="28.23904" ry="13.71611"/>
    <ellipse cx="759.15271" cy="54.47453" fill="#57b894" rx="28.23904" ry="13.71611"/>
    <ellipse cx="755.6228" cy="52.12128" fill="none" stroke="#3f3d56" stroke-miterlimit="10" rx="28.23904" ry="13.71611"/>
    <ellipse cx="637.96014" cy="127.4254" fill="#57b894" rx="28.23904" ry="13.71611"/>
    <ellipse cx="634.43023" cy="125.07214" fill="none" stroke="#3f3d56" stroke-miterlimit="10" rx="28.23904" ry="13.71611"/>
    <ellipse cx="654.43292" cy="180.37362" fill="#57b894" rx="28.23904" ry="13.71611"/>
    <ellipse cx="650.90301" cy="178.02034" fill="none" stroke="#3f3d56" stroke-miterlimit="10" rx="28.23904" ry="13.71611"/>
    <g opacity=".3">
      <ellipse cx="806.49713" cy="393.50133" fill="#57b894" rx="14.7942" ry="6.40684" transform="rotate(-60.8 623.512 466.003)"/>
      <ellipse cx="804.63543" cy="394.57933" fill="none" stroke="#3f3d56" stroke-miterlimit="10" rx="14.7942" ry="6.40684" transform="rotate(-60.8 621.651 467.081)"/>
    </g>
    <g opacity=".3">
      <ellipse cx="948.26056" cy="420.95229" fill="#57b894" rx="6.40684" ry="14.7942" transform="rotate(-48.172 732.633 535.256)"/>
      <ellipse cx="947.61566" cy="418.89995" fill="none" stroke="#3f3d56" stroke-miterlimit="10" rx="6.40684" ry="14.7942" transform="rotate(-48.172 731.988 533.203)"/>
    </g>
    <g opacity=".3">
      <ellipse cx="816.47839" cy="346.82479" fill="#57b894" rx="6.40684" ry="14.7942" transform="rotate(-48.172 600.851 461.128)"/>
      <ellipse cx="815.83343" cy="344.77245" fill="none" stroke="#3f3d56" stroke-miterlimit="10" rx="6.40684" ry="14.7942" transform="rotate(-48.172 600.206 459.076)"/>
    </g>
  </g>
</svg>
