<svg xmlns="http://www.w3.org/2000/svg" data-name="Layer 1" viewBox="0 0 850.53801 740.82953">
  <path fill="#f2f2f2" d="M766.87801 385.53954a354.2104 354.2104 0 01-98.85 245.9q-5.74494 6.015-11.8 11.74-9.225 8.775-19.07 16.87a353.93418 353.93418 0 01-217.58 80.69q-3.97494.09-7.98.09c-63.43 0-143.21-33.87994-215.61-80.78q-8.985-5.82-17.81-11.91-4.125-2.82-8.21-5.72a730.42959 730.42959 0 01-79.32-64.8 514.11633 514.11633 0 01-45.75-48.92c-55.63-68.62006-67.9-130.45 11.41-143.16q14.085-2.25 27.34-4.81 19.20008-3.69 36.75-7.97 23.64-5.745 44.42005-12.46 6.99-2.25 13.66-4.59c65.74-23.09 109.74-53.19995 139.69-85.87q7.62-8.295 14.05-16.79a236.05512 236.05512 0 0017.83-27.12 254.89845 254.89845 0 0018.41-41.05l.27-.78c23.83-68.74 16.58-132.5 42.87-153.84 112.38-91.23 252.29 38.69 317.96 191.9q4.965 11.58 9.34 23.3 1.965 5.23507 3.79 10.49 4.79992 13.69491 8.71 27.46 1.5 5.25 2.86005 10.49c.97 3.77 1.9 7.53 2.76 11.29 6.3899 27.53 9.8599 54.68002 9.8599 80.35z"/>
  <path fill="#2f2e41" d="M419.57801 740.73956q-3.97494.09-7.98.09c-63.43 0-143.21-33.87994-215.61-80.78q-8.985-5.82-17.81-11.91l5.16-31.4 156.21-20.74 78.4 59.95z"/>
  <path fill="#fff" d="M427.09795 180.04962h-22.26a2.601 2.601 0 00-2.59985 2.59985v22.27a2.59264 2.59264 0 002.59985 2.59009h22.26a2.59918 2.59918 0 002.6001-2.59009v-22.27a2.60761 2.60761 0 00-2.6001-2.59985z"/>
  <path fill="#e6e6e6" d="M427.09795 217.99957h-22.26a2.60105 2.60105 0 00-2.59985 2.6v22.27a2.59253 2.59253 0 002.59985 2.59h22.26a2.59907 2.59907 0 002.6001-2.59v-22.27a2.60763 2.60763 0 00-2.6001-2.6zM427.09795 255.94952h-22.26a2.60116 2.60116 0 00-2.59985 2.6001v22.26a2.59464 2.59464 0 002.59985 2.59985h22.26a2.60116 2.60116 0 002.6001-2.59985v-22.26a2.60774 2.60774 0 00-2.6001-2.6001zM429.65801 296.03961a2.61714 2.61714 0 00-2.56006-2.14014h-22.26a2.60124 2.60124 0 00-2.59985 2.6001v22.26a2.59474 2.59474 0 002.59985 2.6h22.26a2.60126 2.60126 0 002.6001-2.6v-22.26a2.31271 2.31271 0 00-.04004-.45996zM428.10801 332.04962a2.634 2.634 0 00-1.01-.20008h-22.26a2.59475 2.59475 0 00-2.59985 2.6v22.26a2.58836 2.58836 0 002.59985 2.6001h22.26a2.60137 2.60137 0 002.6001-2.6001v-22.26a2.61575 2.61575 0 00-1.5901-2.39992zM473.85801 180.04962h-22.26a2.601 2.601 0 00-2.59985 2.59985v22.27a2.59264 2.59264 0 002.59985 2.59009h22.26a2.59918 2.59918 0 002.6001-2.59009v-22.27a2.60761 2.60761 0 00-2.6001-2.59985z"/>
  <path fill="#6c63ff" d="M473.85801 217.99957h-22.26a2.60105 2.60105 0 00-2.59985 2.6v22.27a2.59253 2.59253 0 002.59985 2.59h22.26a2.59907 2.59907 0 002.6001-2.59v-22.27a2.60763 2.60763 0 00-2.6001-2.6zM473.85801 255.94952h-22.26a2.60116 2.60116 0 00-2.59985 2.6001v22.26a2.59464 2.59464 0 002.59985 2.59985h22.26a2.60116 2.60116 0 002.6001-2.59985v-22.26a2.60774 2.60774 0 00-2.6001-2.6001zM473.85801 293.89947h-22.26a2.59261 2.59261 0 00-2.46 1.78 2.47846 2.47846 0 00-.13989.82007v22.26a2.59474 2.59474 0 002.59985 2.6h22.26a2.60126 2.60126 0 002.6001-2.6v-22.26a2.60782 2.60782 0 00-2.60006-2.60007z"/>
  <path fill="#e6e6e6" d="M473.85801 331.84954h-22.26a2.59475 2.59475 0 00-2.59985 2.6v22.26a2.59485 2.59485 0 002.59985 2.6001h22.26a2.60137 2.60137 0 002.6001-2.6001v-22.26a2.60127 2.60127 0 00-2.6001-2.6z"/>
  <path fill="#6c63ff" d="M520.61801 180.04962h-22.26a2.601 2.601 0 00-2.59985 2.59985v22.27a2.59264 2.59264 0 002.59985 2.59009h22.26a2.59918 2.59918 0 002.6001-2.59009v-22.27a2.60761 2.60761 0 00-2.6001-2.59985zM520.61801 217.99957h-22.26a2.60105 2.60105 0 00-2.59985 2.6v22.27a2.59253 2.59253 0 002.59985 2.59h22.26a2.59907 2.59907 0 002.6001-2.59v-22.27a2.60763 2.60763 0 00-2.6001-2.6z"/>
  <path fill="#e6e6e6" d="M520.61801 255.94952h-22.26a2.60116 2.60116 0 00-2.59985 2.6001v22.26a2.59464 2.59464 0 002.59985 2.59985h22.26a2.60116 2.60116 0 002.6001-2.59985v-22.26a2.60774 2.60774 0 00-2.6001-2.6001z"/>
  <path fill="#6c63ff" d="M520.61801 293.89947h-22.26a2.60124 2.60124 0 00-2.59985 2.6001v22.26a2.59474 2.59474 0 002.59985 2.6h22.26a2.60126 2.60126 0 002.6001-2.6v-22.26a2.60782 2.60782 0 00-2.6001-2.6001zM520.61801 331.84954h-22.26a2.59475 2.59475 0 00-2.59985 2.6v22.26a2.59485 2.59485 0 002.59985 2.6001h22.26a2.60137 2.60137 0 002.6001-2.6001v-22.26a2.60127 2.60127 0 00-2.6001-2.6zM567.37801 180.04962h-22.26a2.60113 2.60113 0 00-2.6 2.59985v22.27a2.59275 2.59275 0 002.6 2.59009h22.26a2.59918 2.59918 0 002.6001-2.59009v-22.27a2.60761 2.60761 0 00-2.6001-2.59985z"/>
  <path fill="#fff" d="M567.37801 217.99957h-22.26a2.60116 2.60116 0 00-2.6 2.6v22.27a2.59264 2.59264 0 002.6 2.59h22.26a2.59907 2.59907 0 002.6001-2.59v-22.27a2.60763 2.60763 0 00-2.6001-2.6zM567.37801 255.94952h-22.26a2.60126 2.60126 0 00-2.6 2.6001v22.26a2.59474 2.59474 0 002.6 2.59985h22.26a2.60116 2.60116 0 002.6001-2.59985v-22.26a2.60774 2.60774 0 00-2.6001-2.6001z"/>
  <path fill="#e6e6e6" d="M567.37801 293.89947h-22.26a2.60134 2.60134 0 00-2.6 2.6001v22.26a2.59485 2.59485 0 002.6 2.6h22.26a2.60126 2.60126 0 002.6001-2.6v-22.26a2.60782 2.60782 0 00-2.6001-2.6001z"/>
  <path fill="#6c63ff" d="M567.37801 331.84954h-22.26a2.59485 2.59485 0 00-2.6 2.6v22.26a2.595 2.595 0 002.6 2.6001h22.26a2.60137 2.60137 0 002.6001-2.6001v-22.26a2.60127 2.60127 0 00-2.6001-2.6z"/>
  <path fill="#fff" d="M614.13801 180.04962h-22.27a2.599 2.599 0 00-2.59 2.59985v22.27a2.59059 2.59059 0 002.59 2.59009h22.27a2.59918 2.59918 0 002.6001-2.59009v-22.27a2.60761 2.60761 0 00-2.6001-2.59985zM614.13801 217.99957h-22.27a2.599 2.599 0 00-2.59 2.6v22.27a2.59048 2.59048 0 002.59 2.59h22.27a2.59907 2.59907 0 002.6001-2.59v-22.27a2.60763 2.60763 0 00-2.6001-2.6zM614.13801 255.94952h-22.27a2.59915 2.59915 0 00-2.59 2.6001v22.26a2.59261 2.59261 0 002.59 2.59985h22.27a2.60116 2.60116 0 002.6001-2.59985v-22.26a2.60774 2.60774 0 00-2.6001-2.6001z"/>
  <path fill="#6c63ff" d="M614.13801 293.89947h-22.27a2.59923 2.59923 0 00-2.59 2.6001v22.26a2.59271 2.59271 0 002.59 2.6h22.27a2.60126 2.60126 0 002.6001-2.6v-22.26a2.60782 2.60782 0 00-2.6001-2.6001z"/>
  <path fill="#e6e6e6" d="M614.13801 331.84954h-22.27a2.59272 2.59272 0 00-2.59 2.6v22.26a2.59282 2.59282 0 002.59 2.6001h22.27a2.60137 2.60137 0 002.6001-2.6001v-22.26a2.60127 2.60127 0 00-2.6001-2.6z"/>
  <path fill="#fff" d="M660.89801 180.04962h-22.27a2.599 2.599 0 00-2.59 2.59985v22.27a2.59059 2.59059 0 002.59 2.59009h22.27a2.59927 2.59927 0 002.6001-2.59009v-22.27a2.60769 2.60769 0 00-2.6001-2.59985zM660.89801 217.99957h-22.27a2.599 2.599 0 00-2.59 2.6v22.27a2.59048 2.59048 0 002.59 2.59h22.27a2.59916 2.59916 0 002.6001-2.59v-22.27a2.60772 2.60772 0 00-2.6001-2.6z"/>
  <path fill="#6c63ff" d="M660.89801 255.94952h-22.27a2.59915 2.59915 0 00-2.59 2.6001v22.26a2.59261 2.59261 0 002.59 2.59985h22.27a2.60124 2.60124 0 002.6001-2.59985v-22.26a2.60782 2.60782 0 00-2.6001-2.6001z"/>
  <path fill="#e6e6e6" d="M660.89801 293.89947h-22.27a2.59923 2.59923 0 00-2.59 2.6001v22.26a2.59271 2.59271 0 002.59 2.6h22.27a2.60134 2.60134 0 002.6001-2.6v-22.26a2.60791 2.60791 0 00-2.6001-2.6001z"/>
  <path fill="#fff" d="M660.89801 331.84954h-22.27a2.59272 2.59272 0 00-2.59 2.6v22.26a2.59282 2.59282 0 002.59 2.6001h22.27a2.60146 2.60146 0 002.6001-2.6001v-22.26a2.60135 2.60135 0 00-2.6001-2.6z"/>
  <path fill="#6c63ff" d="M707.65801 180.04962h-22.27a2.599 2.599 0 00-2.59 2.59985v22.27a2.59059 2.59059 0 002.59 2.59009h22.27a2.59927 2.59927 0 002.6001-2.59009v-22.27a2.60769 2.60769 0 00-2.6001-2.59985zM707.65801 217.99957h-22.27a2.599 2.599 0 00-2.59 2.6v22.27a2.59048 2.59048 0 002.59 2.59h22.27a2.59916 2.59916 0 002.6001-2.59v-22.27a2.60772 2.60772 0 00-2.6001-2.6z"/>
  <path fill="#e6e6e6" d="M707.65801 255.94952h-22.27a2.59915 2.59915 0 00-2.59 2.6001v22.26a2.59261 2.59261 0 002.59 2.59985h22.27a2.60124 2.60124 0 002.6001-2.59985v-22.26a2.60782 2.60782 0 00-2.6001-2.6001z"/>
  <path fill="#fff" d="M707.65801 293.89947h-22.27a2.59923 2.59923 0 00-2.59 2.6001v22.26a2.59271 2.59271 0 002.59 2.6h22.27a2.60134 2.60134 0 002.6001-2.6v-22.26a2.60791 2.60791 0 00-2.6001-2.6001z"/>
  <path fill="#6c63ff" d="M707.65801 331.84954h-22.27a2.59272 2.59272 0 00-2.59 2.6v22.26a2.59282 2.59282 0 002.59 2.6001h22.27a2.60146 2.60146 0 002.6001-2.6001v-22.26a2.60135 2.60135 0 00-2.6001-2.6zM754.41801 180.04962h-22.27a2.599 2.599 0 00-2.59 2.59985v22.27a2.59059 2.59059 0 002.59 2.59009h22.27a2.59916 2.59916 0 002.6-2.59009v-22.27a2.60759 2.60759 0 00-2.6-2.59985zM754.41801 217.99957h-22.27a2.599 2.599 0 00-2.59 2.6v22.27a2.59048 2.59048 0 002.59 2.59h22.27a2.59906 2.59906 0 002.6-2.59v-22.27a2.60761 2.60761 0 00-2.6-2.6z"/>
  <path fill="#e6e6e6" d="M754.41801 255.94952h-22.27a2.59915 2.59915 0 00-2.59 2.6001v22.26a2.59261 2.59261 0 002.59 2.59985h22.27a2.60114 2.60114 0 002.6-2.59985v-22.26a2.60772 2.60772 0 00-2.6-2.6001z"/>
  <path fill="#6c63ff" d="M754.41801 293.89947h-22.27a2.59923 2.59923 0 00-2.59 2.6001v22.26a2.59271 2.59271 0 002.59 2.6h22.27a2.60124 2.60124 0 002.6-2.6v-22.26a2.6078 2.6078 0 00-2.6-2.6001zM754.41801 331.84954h-22.27a2.59272 2.59272 0 00-2.59 2.6v22.26a2.59282 2.59282 0 002.59 2.6001h22.27a2.60135 2.60135 0 002.6-2.6001v-22.26a2.60125 2.60125 0 00-2.6-2.6z"/>
  <path fill="#e6e6e6" d="M801.17801 180.04962h-22.27a2.599 2.599 0 00-2.59 2.59985v22.27a2.59059 2.59059 0 002.59 2.59009h22.27a2.59916 2.59916 0 002.6-2.59009v-22.27a2.60759 2.60759 0 00-2.6-2.59985z"/>
  <path fill="#6c63ff" d="M801.17801 217.99957h-22.27a2.599 2.599 0 00-2.59 2.6v22.27a2.59048 2.59048 0 002.59 2.59h22.27a2.59906 2.59906 0 002.6-2.59v-22.27a2.60761 2.60761 0 00-2.6-2.6zM801.17801 255.94952h-22.27a2.59915 2.59915 0 00-2.59 2.6001v22.26a2.59261 2.59261 0 002.59 2.59985h22.27a2.60114 2.60114 0 002.6-2.59985v-22.26a2.60772 2.60772 0 00-2.6-2.6001zM801.17801 293.89947h-22.27a2.59923 2.59923 0 00-2.59 2.6001v22.26a2.59271 2.59271 0 002.59 2.6h22.27a2.60124 2.60124 0 002.6-2.6v-22.26a2.6078 2.6078 0 00-2.6-2.6001z"/>
  <path fill="#e6e6e6" d="M801.17801 331.84954h-22.27a2.59272 2.59272 0 00-2.59 2.6v22.26a2.59282 2.59282 0 002.59 2.6001h22.27a2.60135 2.60135 0 002.6-2.6001v-22.26a2.60125 2.60125 0 00-2.6-2.6zM847.93801 180.04962h-22.27a2.59913 2.59913 0 00-2.59009 2.59985v22.27a2.5907 2.5907 0 002.59009 2.59009h22.27a2.59916 2.59916 0 002.6-2.59009v-22.27a2.60759 2.60759 0 00-2.6-2.59985zM847.93801 217.99957h-22.27a2.59916 2.59916 0 00-2.59009 2.6v22.27a2.59059 2.59059 0 002.59009 2.59h22.27a2.59906 2.59906 0 002.6-2.59v-22.27a2.60761 2.60761 0 00-2.6-2.6z"/>
  <path fill="#6c63ff" d="M847.93801 255.94952h-22.27a2.59926 2.59926 0 00-2.59009 2.6001v22.26a2.59272 2.59272 0 002.59009 2.59985h22.27a2.60114 2.60114 0 002.6-2.59985v-22.26a2.60772 2.60772 0 00-2.6-2.6001z"/>
  <path fill="#e6e6e6" d="M847.93801 293.89947h-22.27a2.59934 2.59934 0 00-2.59009 2.6001v22.26a2.59282 2.59282 0 002.59009 2.6h22.27a2.60124 2.60124 0 002.6-2.6v-22.26a2.6078 2.6078 0 00-2.6-2.6001zM847.93801 331.84954h-22.27a2.59283 2.59283 0 00-2.59009 2.6v22.26a2.59293 2.59293 0 002.59009 2.6001h22.27a2.60135 2.60135 0 002.6-2.6001v-22.26a2.60125 2.60125 0 00-2.6-2.6z"/>
  <path fill="#2f2e41" d="M336.095 660.051h-.62l.53-.07.09.07z"/>
  <circle cx="282.81438" cy="176.73277" r="68.32185" fill="#ffb6b6" data-name="ab6171fa-7d69-4734-b81c-8dff60f9761b"/>
  <path fill="#2f2e41" d="M342.64595 126.64036s17.8694-34.16091-21.44383-37.26649c0 0-33.51489-30.40228-67.6758-5.558 0 0-18.63322 0-28.82254 21.08567 0 0-14.655-5.558-17.87551 9.31661 0 0-10.72349 31.05546 0 59.00533 10.72348 27.94992 14.28537 31.05537 14.28537 31.05537s-17.6209-58.59838 25.26991-61.704 90.8867-29.90942 94.46114 4.25144 8.95329 42.57784 8.95329 42.57784 33.94958-48.78877-7.15203-62.76377z" data-name="bf427902-b9bf-4946-b5d7-5c1c7e04535e"/>
  <path fill="#cacaca" d="M459.54801 345.10955l-.2201 1.16-2.47 13.04-17.06994 90.2-1.01 5.31006-2.12 11.23-2.8999 15.31994-6.43018 33.95008-1.83984 9.73-.69006 3.6499-.24 1.28-1.91 10.07007-.58 3.03991-4.66 34.53-4.07007 30.09 13.62012 13.62-8.12012 8.12-5.32983 30.53.00989.07007H195.98809q-13.20008-8.55012-26.02-17.63013l1.79-13.3999s6.15991-23.93006 3.56982-26.79c-2.57983-2.86-8.24-7.97-8.24-7.97l7.13013-16.64.99-2.30993-1.66-34.43006-.03992-.83-.55-11.3501-.07007-1.46-.11-2.18994-2.11-43.68006-.04-.72009-.63989-13.24-.6001-12.58984-.26-5.31006-2.56994-53.13-1.74-36.07995-1.52-31.41 6.11-2.06994 65.3501-22.21009 27.06982-35.19006 56.34009.42 27.58008.21009 46.0199 42.67993 10.47009 5 .08.04 7.50988 3.59 19.04 9.09 20.13013 9.62012 10.32983 4.92993z"/>
  <path fill="#ffb6b6" d="M269.10886 557.55088a30.28588 30.28588 0 01-40.66389-22.43l-106.55882-15.11792 37.0428-41.902 95.511 20.7803a30.45 30.45 0 0114.66891 58.66964z"/>
  <path fill="#cacaca" d="M221.59795 481.36956a13.52249 13.52249 0 00-7.88989-4.87l-43.72-9.09009-4.49-.92993a18.93267 18.93267 0 01-12.53009-9.07007 19.16055 19.16055 0 01-2.45-7.8999 18.89456 18.89456 0 01.89-7.48l15.15-45.65 9.82995-29.62a41.79215 41.79215 0 002.09009-11.05 43.34878 43.34878 0 00-9.07007-28.88989 42.69326 42.69326 0 00-49.01-13.64014c-.25.09009-.51.19006-.76.29a42.58322 42.58322 0 00-25.31 28.41l-10.68 38.85-22.03 80.09009a57.7664 57.7664 0 0048.96 72.67993l62.97 7.38 29.14 3.42a13.49651 13.49651 0 0014.84-10.73 4.89544 4.89544 0 00.11-.55005l.7-4.32007 5.93006-36.37988.05993-.37012a13.47483 13.47483 0 00-2.72998-10.57988z"/>
  <path fill="#ffb6b6" d="M336.98257 558.71712a30.28592 30.28592 0 0037.09449-27.9402l103.362-29.99367-42.58155-36.25956-91.62614 34.04148a30.45 30.45 0 00-6.2488 60.152z"/>
  <path fill="#cacaca" d="M528.75811 433.68951l-49.16016-113.13989a42.819 42.819 0 00-20.27-21.3501 43.35617 43.35617 0 00-8.7799-3.2c-.4701-.12-.94007-.23-1.41-.32007a42.1319 42.1319 0 00-19.48.36011 42.81378 42.81378 0 00-27.34 21.73 1.00376 1.00376 0 00-.08.13989 43.10025 43.10025 0 00-.37012 38.8501l.61011 1.22 34.74 69.77a18.90046 18.90046 0 01-10.5 26.18994l-2.44006.88013-43.88 15.84985a13.4969 13.4969 0 00-8.33 16.79l.11.3501 12.3 39.35986c.05994.18005.11987.36011.18994.54a7.0543 7.0543 0 00.4.99 13.48177 13.48177 0 0015.80993 7.53l23.68006-6.25 4.82995-1.28 61.15-16.1499a57.76037 57.76037 0 0038.22009-78.86011z"/>
  <path fill="#3f3d56" d="M44.89801 528.69958a514.11633 514.11633 0 0045.75 48.92h451.97a16.44588 16.44588 0 0116.42 16.43l.65 114.53a355.4301 355.4301 0 0077.47-48.53q9.84-8.085 19.07-16.87 6.045-5.73 11.8-11.74a355.62853 355.62853 0 0068.82-102.74z"/>
  <path fill="#fff" d="M668.02801 631.43951q-5.74494 6.015-11.79993 11.74h-96.21007v-11.74z"/>
  <path fill="#3f3d56" d="M458.64801 255.94952a5.53766 5.53766 0 00-4.87-2.8999h-327.84a5.55451 5.55451 0 00-5.54 5.54992v196.2201h338.92992v-196.2201a5.38548 5.38548 0 00-.67992-2.65002z"/>
  <path fill="#3f3d56" d="M120.10114 449.50715v24.21381a7.64384 7.64384 0 007.64382 7.64392h125.09671v47.78659h-1.66185a.9929.9929 0 00-.993.99292v3.32374a.9929.9929 0 00.993.993h77.6584a.99291.99291 0 00.993-.993v-3.32374a.9929.9929 0 00-.993-.99292h-1.66185v-47.78659h125.09671a7.64384 7.64384 0 007.64382-7.64392v-24.21381z"/>
  <circle cx="285.90293" cy="348.70373" r="31.30642" fill="#6c63ff"/>
  <path fill="#6c63ff" d="M365.66801 172.99957h-5c0-37.8-37.41-62.57-75.15-62.59a82.38227 82.38227 0 00-16.35 1.59c-6.06 1.21-12.35 2.66-18.53 4.55-24.37 7.47-46.97 21.91-46.97 56.45a78.591 78.591 0 002.54 19.88l-4.84 1.26a83.87572 83.87572 0 01-2.7-21.14c0-30.18 12.39-50.91 33.79-63.27 11.25-6.5 24.98-10.69 40.71-12.73a97.13079 97.13079 0 0119.75-.6c43.4 3.11996 72.75 36.39998 72.75 76.6z"/>
  <path fill="#6c63ff" d="M373.99801 175.76953l-1.97-14.56a15.71013 15.71013 0 00-5-9.56 15.81566 15.81566 0 00-13.25-4l-3.13.43a6.52426 6.52426 0 00-4.35 2.53 6.548 6.548 0 00-1.29 4.87l4.55 33.54a6.57712 6.57712 0 005.3 5.57 6.15442 6.15442 0 001.22.12 6.49883 6.49883 0 00.88-.06l3.5-.47a15.79135 15.79135 0 0010.74-6.43c.27-.38.53-.77.77-1.17005a16.7484 16.7484 0 002.03-10.80995z"/>
  <path fill="#fff" d="M348.62801 148.68957a6.4317 6.4317 0 00-2.33 1.92 6.548 6.548 0 00-1.29 4.87l4.55 33.54a6.57712 6.57712 0 005.3 5.57z"/>
  <path fill="#3f3d56" d="M373.99801 175.76953l-1.97-14.56a15.71013 15.71013 0 00-5-9.56l4.53 33.37a6.17592 6.17592 0 00.41 1.56 16.7484 16.7484 0 002.03-10.81z"/>
  <ellipse cx="532.21834" cy="258.90901" fill="#3f3d56" rx="2.5" ry="7" transform="rotate(-7.725 -144.49329542 1513.0376884)"/>
  <ellipse cx="529.21834" cy="240.90901" fill="#3f3d56" rx="2.5" ry="7" transform="rotate(-7.725 -147.49323793 1495.03774654)"/>
  <ellipse cx="548.21834" cy="247.90901" fill="#3f3d56" rx="2.5" ry="7" transform="rotate(-7.725 -128.49323067 1502.03770471)"/>
  <path fill="#3f3d56" d="M285.51801 110.40954a82.38227 82.38227 0 00-16.35 1.59c-6.06 1.21-12.35 2.66-18.53 4.55-9.65-.47-16.75-2.97-18.18-6.82 11.25-6.5 24.98-10.69 40.71-12.73a97.13079 97.13079 0 0119.75-.6 5.727 5.727 0 012.72 3.82c.47 3.48004-3.5 7.17999-10.12 10.19z"/>
  <path fill="#6c63ff" d="M221.67801 207.69958l-7.7-32.01a6.02367 6.02367 0 00-4.88-4.55 6.73326 6.73326 0 00-1-.08 6.02576 6.02576 0 00-1.4.17l-2.98.72a14.904 14.904 0 00-10.99 17.96l3.45 14.36a15.84509 15.84509 0 005.34 8.62005 14.045 14.045 0 001.36.97 14.80921 14.80921 0 0011.37 1.84l2.97-.72a5.84014 5.84014 0 002.17-1.01 5.99327 5.99327 0 002.29-6.27005z"/>
  <ellipse cx="378.62896" cy="274.52323" fill="#3f3d56" rx="2.5" ry="7" transform="rotate(-13.53 -44.1774033 971.19806456)"/>
  <ellipse cx="368.62896" cy="277.52323" fill="#3f3d56" rx="2.5" ry="7" transform="rotate(-13.53 -54.17741112 974.19804387)"/>
  <path fill="#fff" d="M222.16801 207.57952l-7.7-32.01a6.53174 6.53174 0 00-5.29-4.92l10.51 43.72a6.5111 6.5111 0 002.48-6.79z"/>
  <path fill="#3f3d56" d="M194.46801 183.56957a6.476 6.476 0 00-1.17-2.45 14.72545 14.72545 0 00-.57 8.79l3.45 14.36a15.84509 15.84509 0 005.34 8.62005z"/>
</svg>
