<svg xmlns="http://www.w3.org/2000/svg" width="1140" height="450" class="illustration styles_illustrationTablet__1DWOa" data-name="Layer 1" viewBox="0 0 1123.1527 441.17647">
  <circle cx="319.52676" cy="122.39085" fill="#24285b"/>
  <g transform="translate(29.474756 .78864349)">
    <g transform="matrix(.85493 0 0 .68608 71.257027 116.41647)">
      <path fill="#f2f2f2" d="M854.83886 300.17412H223.47091a16.274561 16.274561 0 0 1-16.25616-16.25616v-389.3141a11.923005 11.923005 0 0 1 11.90925-11.90973h639.85565a12.129172 12.129172 0 0 1 12.11537 12.11562v389.10821a16.274552 16.274552 0 0 1-16.25616 16.25616z"/>
      <path fill="#fff" d="M834.42527 279.64966H246.00682c-8.62562 0-15.64292-6.57136-15.64292-14.64844V-74.018478c0-5.99023 5.2-10.86389 11.59175-10.86389h596.32873c6.49774 0 11.78394 4.95401 11.78394 11.04284V265.00122c0 8.07708-7.01753 14.64844-15.64305 14.64844z"/>
      <path fill="#3f3d56" d="M870.86872-103.37037h-663.8821v-8.27625a16.328828 16.328828 0 0 1 16.31527-16.30522h631.25146a16.328749 16.328749 0 0 1 16.31537 16.30522z"/>
      <circle cx="236.63722" cy="-115.63657" r="4.2201185" fill="#fff"/>
      <circle cx="252.65575" cy="-115.63657" r="4.2201185" fill="#fff"/>
      <circle cx="268.67429" cy="-115.63657" r="4.2201185" fill="#fff"/>
      <path fill="#ccc" d="M526.25647-10.755318H411.17456a6.4691035 6.4691035 0 0 1 0-12.938207h115.08191a6.4691035 6.4691035 0 1 1 0 12.938207zM669.25765-10.755318h-115.0819a6.4691035 6.4691035 0 0 1 0-12.938207h115.0819a6.4691035 6.4691035 0 1 1 0 12.938207zM669.25765 13.759155H469.056a6.4690985 6.4690985 0 1 1 0-12.93819678h200.20165a6.4690985 6.4690985 0 1 1 0 12.93819678zM526.25647-35.610303H411.17456a6.4691034 6.4691034 0 0 1 0-12.938197h115.08191a6.4691034 6.4691034 0 1 1 0 12.938197zM589.58557-35.269821h-32.68598a6.4691034 6.4691034 0 0 1 0-12.938206h32.68598a6.4691034 6.4691034 0 1 1 0 12.938206zM443.86055 13.759155h-32.68599a6.4691034 6.4691034 0 0 1 0-12.93819678h32.68599a6.4691034 6.4691034 0 1 1 0 12.93819678zM526.25647 218.80133H411.17456a6.469105 6.469105 0 0 1 0-12.93821h115.08191a6.469105 6.469105 0 1 1 0 12.93821zM669.25765 218.80133h-115.0819a6.469105 6.469105 0 0 1 0-12.93821h115.0819a6.469105 6.469105 0 1 1 0 12.93821zM669.25765 243.3158H469.056a6.4691 6.4691 0 1 1 0-12.9382h200.20165a6.4691034 6.4691034 0 1 1 0 12.9382zM526.25647 193.94634H411.17456a6.4690985 6.4690985 0 0 1 0-12.93819h115.08191a6.4690985 6.4690985 0 1 1 0 12.93819zM589.58557 194.28683h-32.68598a6.469105 6.469105 0 0 1 0-12.93821h32.68598a6.469105 6.469105 0 0 1 0 12.93821zM443.86055 243.3158h-32.68599a6.4691 6.4691 0 0 1 0-12.9382h32.68599a6.4691034 6.4691034 0 1 1 0 12.9382z"/>
      <path fill="#6c818c" d="M496.20064 149.35033a9.2580492 9.2580492 0 0 1-6.52564-2.67005l-43.25978-42.7185a9.0163546 9.0163546 0 0 1 0-12.830902l43.08497-42.546157a9.5583349 9.5583349 0 0 1 13.44191.04236 9.5458128 9.5458128 0 0 1 .00019 13.484424l-32.01584 32.016394a5.3333793 5.3333793 0 0 0 0 7.533521l31.84215 31.84252a9.2788177 9.2788177 0 0 1-6.56796 15.84642zM565.13226 149.35033a9.2788177 9.2788177 0 0 1-6.56797-15.84642l31.84215-31.84248a5.3333793 5.3333793 0 0 0 0-7.533517l-32.01583-32.016434a9.5347389 9.5347389 0 0 1 .00019-13.484423 9.5583152 9.5583152 0 0 1 13.4419-.04237l43.08496 42.546158a9.0163251 9.0163251 0 0 1 0 12.830896l-43.25977 42.71851a9.2600098 9.2600098 0 0 1-6.52563 2.67007z"/>
    </g>
    <path fill="#24285b" d="M374.01511 353.19244s20.22108 59.8859 23.21749 88.22195H278.05452s5.08825-72.95115 21.03143-91.45675z"/>
    <rect width="452.66565" height="17.371323" x="308.92322" y="304.94342" fill="#c1c1c1" rx="7.80198"/>
    <path fill="#e6e6e6" d="M590.6991 398.58472h196.55716v45.77039H590.6991z"/>
    <path fill="#6c828d" d="M751.18624 375.26894s-17.16813-5.23031-20.89951-23.10575c0 0 26.60965-5.98649 27.36347 24.61812z" opacity=".58"/>
    <path fill="#6c828d" d="M753.29692 373.37847s-12.0045-21.15227-1.43225-40.91818c0 0 20.23993 14.32556 11.30723 40.96018z" opacity=".73"/>
    <path fill="#6c828d" d="M756.38756 373.39947s6.35089-22.34956 25.51662-26.57161c0 0 3.58062 14.49361-12.41909 26.61362z"/>
    <path fill="#24285b" d="m769.35319355 399.55097777 3.22255741-26.52960044-28.6449548-.12603136 3.48639253 26.55060567z"/>
    <path fill="#ffd200" d="M624.18732 386.21265h89.91124v13.317314h-89.91124z"/>
    <path fill="#c1c1c1" d="M632.27197 372.89532h89.91124v13.317314h-89.91124z" opacity=".55"/>
    <path fill="#f4a28c" d="M323.94298 210.46193c15.07629-20.66914 44.96504-16.80418 54.76463 7.43586a61.662033 68.729099 0 0 1 4.88095 25.56336c2.0353 52.61808 26.38351 81.33223 48.79064 72.25797 22.40715-9.07426 33.22439-53.0592 33.22439-53.0592s18.29884-14.53562 22.36945 0c4.07059 14.53562-12.89023 14.70366-12.89023 14.70366s-21.72871 142.33141-116.57743 51.27375c-59.90942-57.65934-49.97791-96.93911-34.5624-118.1754z"/>
    <path d="M323.94298 210.46193c15.07629-20.66914 44.96504-16.80418 54.76463 7.43586a61.662033 68.729099 0 0 1 4.88095 25.56336c2.0353 52.61808 26.38351 81.33223 48.79064 72.25797 22.40715-9.07426 33.22439-53.0592 33.22439-53.0592s18.29884-14.53562 22.36945 0c4.07059 14.53562-12.89023 14.70366-12.89023 14.70366s-21.72871 142.33141-116.57743 51.27375c-59.90942-57.65934-49.97791-96.93911-34.5624-118.1754z" opacity=".08"/>
    <path fill="#f4a28c" d="M350.11919 140.74559s4.29674 11.38483 4.78672 19.80793a5.6536094 6.3015677 0 0 1-5.23901 6.57464 12.249486 13.653397 0 0 1-11.9668-6.53264l-6.12475-9.11626a9.9503527 11.090759 0 0 1 .90458-12.77118c4.56058-6.91071 15.30244-5.04125 17.63926 2.03751z"/>
    <path fill="#f4a28c" d="m348.5927292 193.99383613-5.08824856-30.5415986-10.94915706-12.30906244-4.25905249 40.18299734zM352.4937 148.07641l4.25906 3.46586a1.8845365 2.1005226 0 0 1-.2073 3.33984l-3.76907 2.28957z"/>
    <path fill="#ce8172" d="M344.0133 166.03588a12.607549 14.052496 0 0 1-5.50285-2.43661s-2.29913 14.22054 7.53814 15.01874z" opacity=".31"/>
    <path fill="#f4a28c" d="M340.48921 153.41174s-1.39456-4.49511-4.33443-3.04576c-2.93988 1.44936-.97996 7.96098 3.33563 7.07876z"/>
    <path fill="#24285b" d="M347.78237 140.99765a32.03712 35.708884 0 0 1-9.85613 4.45311s2.56297 13.65339-5.29555 21.00522c0 0-15.52858-15.03974-7.70775-27.18076 6.53934-10.16652 11.08107-18.58962 21.01258-14.57762a8.2919604 9.2422994 0 0 1 1.84685 16.30005z"/>
    <path fill="#f4a28c" d="M340.5269 152.0464s-2.31798-4.87321-5.65361-2.41561c-3.33563 2.45762-1.11187 8.4021 4.31559 8.63316z"/>
    <path fill="#6c828d" d="m328.29626 191.32618 9.00809.3991a63.565414 70.850627 0 0 1 29.77567 9.74642c18.84537 12.33007 47.24533 36.36004 43.34434 66.56556-5.82321 44.6151-36.37155 85.15518-36.37155 85.15518l-74.98571-3.2348s-63.05658-162.3704 29.22916-158.63146z"/>
    <path d="M319.74046 207.94131s40.36677 32.24302 16.11279 89.14617c-24.25398 56.90316 6.27551 54.71862 6.27551 54.71862l-43.06166-1.84846-6.99163-20.64814z" opacity=".08"/>
    <path fill="#ffd200" d="m346.55742 365.20744-38.57646 54.00443s38.82144 30.43657 39.40565 31.71788c.58421 1.28133 36.56001-56.35701 36.56001-56.35701z"/>
    <path fill="#f4a28c" d="M292.07547 203.80327a122.49486 136.53397 0 0 0-23.44363 49.34128c-8.21657 30.81467-20.91835 77.71934-16.43316 96.81309 3.20371 13.61138 20.7299 24.32405 30.37873 31.50783 11.68412 8.54913 26.2139 21.00523 39.97102 24.15602a41.704792 46.484565 0 0 0 13.19175 1.40735 14.077487 15.690904 0 0 0 10.94916-7.39384 6.4074239 7.1417768 0 0 0 .86688-4.07501c-.35806-3.67592-3.88214-5.73444-6.93509-7.14178-2.63835-1.1973-6.12475-1.63841-8.7631-2.83571a14.71823 16.405082 0 0 1 3.8633-4.20105 4.4098153 4.9152229 0 0 0 1.88454-3.88596c-.18845-1.89047-2.92103 0-4.63596.10502-7.06701.88222-13.43674 3.33984-19.44841-1.40735-3.95753-3.08777-7.80198-6.30156-11.47683-9.89345-4.88095-4.64216-18.12924-16.048-14.69938-24.84919 4.71133-12.14102 53.40775-84.02091 50.24174-108.61802-3.16603-24.59712-22.12447-48.39604-45.51156-29.02923z"/>
    <path fill="#24285b" d="m537.11647958 181.5860054 2.05430846 1.81158398-67.17550597 94.6376088-2.05430846-1.81158397z"/>
    <path fill="#ffd200" d="M636.43681 295.51209h56.21573v4.66316a4.2778977 4.7681863 0 0 1-4.2779 4.76819h-47.65993a4.2778977 4.7681863 0 0 1-4.2779-4.76819z"/>
    <path fill="#fff" d="M643.42845 283.35007h42.21361a3.3356295 3.717925 0 0 1 3.33563 3.71793v8.40208h-48.88487V287.068a3.3356295 3.717925 0 0 1 3.33563-3.71793zM364.25322751 402.11361534l5.08824855-7.41484478-18.54383916-14.91371046-5.29554756 7.16278207z"/>
  </g>
</svg>
