<svg xmlns="http://www.w3.org/2000/svg" xmlns:xlink="http://www.w3.org/1999/xlink" width="1140" height="450" class="illustration styles_illustrationTablet__1DWOa" data-name="Layer 1" viewBox="0 0 1324.6463 857.10294">
  <defs>
    <linearGradient id="a" x1="409.10999" x2="425.87" y1="545.14001" y2="545.14001" gradientTransform="matrix(1 0 0 -1 0 598)" gradientUnits="userSpaceOnUse">
      <stop offset=".01"/>
      <stop offset="1" stop-opacity="0"/>
    </linearGradient>
    <linearGradient id="b" x1="391.45999" x2="431.23001" y1="458.97" y2="458.97" gradientTransform="matrix(1 0 0 -1 0 598)" gradientUnits="userSpaceOnUse">
      <stop offset="0" stop-color="#ecc4d7"/>
      <stop offset=".42" stop-color="#efd4d1"/>
      <stop offset="1" stop-color="#f2eac9"/>
    </linearGradient>
    <linearGradient id="c" x1="422.45001" x2="-188.3" y1="179.03" y2="696" gradientUnits="userSpaceOnUse">
      <stop offset="0" stop-opacity="0"/>
      <stop offset=".99"/>
    </linearGradient>
    <linearGradient id="d" x1="535.63" x2="541.48999" y1="498.72" y2="606.06" gradientUnits="userSpaceOnUse">
      <stop offset="0" stop-opacity="0"/>
      <stop offset=".86" stop-opacity=".66"/>
      <stop offset=".99"/>
    </linearGradient>
    <linearGradient id="e" x1="292.87" x2="299.95" y1="191.99" y2="181.93" gradientUnits="userSpaceOnUse">
      <stop offset="0" stop-opacity="0"/>
      <stop offset=".99" stop-color="#005abf"/>
    </linearGradient>
    <linearGradient id="g" x1="206.65" x2="215.06" y1="251.69" y2="239.74" xlink:href="#e"/>
    <linearGradient id="h" x1="75.59" x2="81.23" y1="181.72" y2="173.7" xlink:href="#e"/>
    <linearGradient id="f" x1="292.87" x2="299.95" y1="191.99" y2="181.93" gradientUnits="userSpaceOnUse" xlink:href="#e"/>
  </defs>
  <g transform="matrix(3.53373 0 0 3.2657 -116.22773 -100.21845)">
    <path fill="#aed4ed" d="m330.74 188.25-139.46-79.59-119.71 70.53-.3-2.64-13.9-1.13v12.14l150.11 86.66c-1-.58 135.16-79.19 135.16-79.19v-12.14z"/>
    <path fill="#d4e7f7" d="m57.37 175.42 150.11 86.66c-1-.58 135.16-79.19 135.16-79.19L191.28 96.53Z"/>
    <ellipse cx="195.17999" cy="178.21001" fill="#6c828d" rx="83.690002" ry="49.77"/>
    <ellipse cx="195.17999" cy="178.21001" opacity=".13" rx="83.690002" ry="49.77"/>
    <ellipse cx="193.42" cy="174.49001" fill="#fff" rx="21.370001" ry="12.71"/>
    <path fill="#aed4ed" d="M150.94 163.84V172a.5.5 0 0 0 1 0v-8.16a.5.5 0 0 0-1 0z"/>
    <ellipse cx="193.42" cy="174.49001" fill="none" stroke="#e6e6e6" stroke-miterlimit="10" rx="15.43" ry="9.1800003"/>
    <ellipse cx="193.37" cy="173.89999" fill="#3b0459" rx="6.6300001" ry="4.3099999"/>
    <path fill="#fff" d="M169.36 181.78s5.85 8.08 21.7 7.84l-4.32 34.61s-38.34-.49-60-23.16zM193.37 159s15-.59 19.83 7.5l37.27-23.18s-24.65-15.21-63.73-11.86z" opacity=".18"/>
    <path fill="#3b0459" d="M97.53 94.69v23.24c0 .05-1.54.62-1.65.67a10 10 0 0 0-3.15 2.2c-2.48 2.75-.8 7.3 3 7.1 4-.21 4.94-4.51 5.16-7.81V96.53l15.65-8.19V84.2Z"/>
    <path fill="#3b0459" d="M113.18 85.9v19.33c0 .05-1.54.62-1.65.67a10 10 0 0 0-3.15 2.2c-2.48 2.75-.8 7.3 3 7.1 4-.21 4.94-4.51 5.16-7.81V85c-1.14.26-2.26.56-3.36.9zM145.14 62.62v28.6c0 .07-1.9.76-2 .82a12.34 12.34 0 0 0-3.88 2.71c-3.05 3.38-1 9 3.68 8.74 4.88-.26 6.08-5.55 6.36-9.61v-29l19.26-10.07v-5.1z"/>
    <path fill="#3b0459" d="M164.4 51.81v23.78c0 .07-1.9.76-2 .82a12.34 12.34 0 0 0-3.88 2.71c-3.05 3.38-1 9 3.68 8.74 4.88-.26 6.08-5.55 6.36-9.61V50.71c-1.42.29-2.8.68-4.16 1.1z"/>
    <path fill="#ef986c" d="M217.85 81.24a.63.63 0 0 0-.72-.82l-.8.13v-.06a.69.69 0 0 0 .11-.52.63.63 0 0 0-.6-1 42.73 42.73 0 0 1-11.79.6c-.75-.06-1.53-.16-2.29-.15l-1.69-.14h-.43c-.79 0-.79 1.2 0 1.22a.72.72 0 0 0 .58.49l.69.06a.72.72 0 0 0 .06.58.5.5 0 0 0 .16.19.63.63 0 0 0 .32.14h.19a36 36 0 0 0 5.1.75 5.12 5.12 0 0 0-1.81 1.88.62.62 0 0 0 .84.84c1.41-.78 2.85-1.49 4.32-2.14a15.4 15.4 0 0 0 8-.81c.71-.31.44-1.41-.24-1.24z"/>
    <circle cx="235.50999" cy="55.310001" r="2.54" fill="#f7931e"/>
    <path fill="#d4e7f7" d="M203.1 148.71c-.72.67-3.62 1.86-3.13 4.51.63 3.39 7.81 2.06 7.81 2.06l8.91-3.57 8.37-12.14-7-2.39-6.36 9.23"/>
    <path fill="#2a343d" d="M218.08 137.18c-.27.57-6.07 7.33-7.48 8.27-1.41.94-7.15 2.21-7.5 3.26-.35 1.05 3 4.32 3 4.32s8.06-2 9.33-2.95a12.29 12.29 0 0 0 2.13-2l6.4-9.28"/>
    <path fill="#d4e7f7" d="M237.12 159.36c-.21 1-1.93 3.59 0 5.49 2.44 2.43 7.6-2.74 7.6-2.74l5.31-8v-14.75l-7.11 2v11.21"/>
    <path fill="#2a343d" d="M242.9 141.36c.11.62-.83 9.48-1.47 11.06s-4.63 5.88-4.32 6.94c.31 1.06 5 1.83 5 1.83s5.48-6.25 6-7.72a12.29 12.29 0 0 0 .63-2.84v-11.27"/>
    <path fill="#fdece2" d="M239.08 84.67s-9.58 20.65-11.62 24.33c-1.71 3.1-13.06 27.55-16.69 35.39a12.43 12.43 0 0 0 10.63 3.47l26-49.62 4.83-14z"/>
    <path fill="#fdece2" d="M254.68 99.4c.35-6.23-.55-12.48-1.47-18.66-.58-1.92-1-3.37-1-3.37L243 90.4s-8.46 28.47-6.56 32.5c1.9 4.03 3.75 27.88 3.75 27.88s6.2 4.74 9.63-1.8c.9-1.72-.54-28.37-.54-28.37s3.37-12.07 5.4-21.21z"/>
    <path fill="#6c828d" d="M239.13 59.8c-.54.13-4.95.75-7 3.78s-5.31 10-7.29 11.6c-1.98 1.6-12 3-12 3s-1.1 5 .5 6.92 13.59-1.33 16.3-1.94c2.71-.61 10.76-12.5 10.76-12.5"/>
    <path fill="#35406e" d="M244.27 78.87q.92-.06 1.83-.16c-1.87-8-7.51-25.55-8.64-.25a23.28 23.28 0 0 0 6.81.41z"/>
    <path fill="#6c828d" d="M251.41 61.8c-1.38-.57-4.39-2.2-6.14-2.17a55 55 0 0 0-8.28.66c-3.42 3.53-2 11.34-1.35 15.44.6 3.81 1.55 7.54 2.43 11.28 4.45 2.4 12.58-.06 15.77-1.29a108.93 108.93 0 0 0-2.43-23.92Z"/>
    <path fill="#2a343d" d="M245.17 47.32a2.5 2.5 0 0 0-3.16-.23.48.48 0 0 0-.1-.11c-.76-.58-1.18-1.26-2.21-1.37a5.31 5.31 0 0 0-2.73.58 3.4 3.4 0 0 0-1.79 1.87.42.42 0 0 0-.26 0 3.74 3.74 0 0 0-2.87 4.37c.37 1.65 2 3.28 3.75 3.1a6.24 6.24 0 0 0 2.63-.11 1.06 1.06 0 0 0 .44-1.8l.11-.1h.1a.86.86 0 0 0 1.17-.06l.13-.11A3 3 0 0 0 241 53h.25v.26a1 1 0 0 0 .64 1 1.56 1.56 0 0 0 .61 0 5.39 5.39 0 0 1-1.47 1.9c-.86.64-.1 1.8.76 1.72-.36.38.13 2.26.57 1.9a10.12 10.12 0 0 0 3.78-7.27c.04-1.2.09-4.25-.97-5.19z"/>
    <path fill="#ef986c" d="M234.62 53.14c-.25 0 1.15 8.11 4.57 8.07 4.3 0 5-5.3 5-5.3s0-3.79-2.85-4.57c-2.85-.78-3.63 1.82-6.72 1.8z"/>
    <path fill="#2a343d" d="M234.62 53.14s3.41 0 5.07-.88c1.66-.88.11 5.2 1.42 5 1.31-.2.69-3.29 1.89-2.31s-.69 5-.69 5 3.25-2.41 3.53-5.62c.28-3.21-4.14-5.45-7.85-4.49s-3.37 3.3-3.37 3.3zM237.94 122.35c-.29-4.64 1.14-9.44 2-14L242.7 94c.15-.77-1-1.1-1.18-.33l-2.75 14.36c-.82 4.28-2.12 8.74-2.1 13.13.02 4.39 1.21 8.63 1.82 12.88.74 5.14 1.25 10.3 1.6 15.48.05.78 1.28.79 1.22 0-.31-4.65-.76-9.29-1.38-13.91-.58-4.39-1.72-8.83-1.99-13.26z"/>
    <path fill="#ef986c" d="M246.93 58.36s-.06-4.25-.57-4.17c-.51.08-.65 1.68-.78 2.61l-.69-1.7s-1.25-2.22-2.16-2c-.91.22-.9 3.57-.94 4.24-.04.67 2.9 3.88 2.9 3.88l1.08-1.6.09.72z"/>
    <path fill="#6c828d" d="M246.93 58.36c1.06-.57 13.24 11.4 11.42 16.79-1.82 5.39-16.57-8.66-16.57-8.66s2.66-6.81 5.15-8.13z"/>
    <circle cx="243.58" cy="54.419998" r="2.54" fill="#f7931e"/>
    <path fill="#f7931e" d="M239.61 46c-3.23-.49-4.68 1-5.33 2.23h.07A5.73 5.73 0 0 1 235 48a.78.78 0 0 1 .18 0 3.9 3.9 0 0 1 1.8-.64c5.25.17 5.69 5.87 5.69 5.87l1.65-.06s.5-6.37-4.71-7.17z"/>
    <path fill="#4dc7db" d="M241.78 66.49s6.67 7.62 11.66 8.91v6.81s-9.07-10.44-11.66-15.72z"/>
    <path fill="url(#f)" d="m319.68 184.71-23.71 13.79-20.05-13.24 18.73-11.36" opacity=".32"/>
    <path fill="#6c828d" d="M316.53 159.5c-.74-1.58-4-2.78-7.91-2.78s-7.34 1.26-8 2.9c-4.6 6.44-9.13 16.93-3.47 24a14.42 14.42 0 0 0 11.11 5h.74a14.42 14.42 0 0 0 11.11-5c5.68-7.11 1.05-17.69-3.58-24.12z"/>
    <ellipse cx="308.62" cy="160.17999" opacity=".5" rx="8.0699997" ry="3.46"/>
    <path fill="#fe6162" d="M318 130.82a66.77 66.77 0 0 0-9 27.66 193.12 193.12 0 0 0-3.24-35.21c-.08-.41-.71-.24-.63.17a192.2 192.2 0 0 1 3.18 39.39.31.31 0 0 0 .41.3v.29a.33.33 0 0 0 .65 0 66.08 66.08 0 0 1 9.16-32.27.33.33 0 0 0-.53-.33z"/>
    <path fill="#fe6162" d="M312.94 141.56s5-16.06 15.71-22c0 0-2.17 3.19-1.16 5.79s2.61 7.24-2.46 9.85c-5.07 2.61-8 0-7.53 5.07.47 5.07 2.44 7.53-.81 10-3.25 2.47-6 4.61-7.1 9.91 0 0 1.23-13.28 3.35-18.62zM308.18 139.87s-2.08-24.67-6.42-30.91a11.47 11.47 0 0 1-1.22 6.94c-1.88 3.57-3.9 4.81-2.81 9.46 1.09 4.65 5.49 3.72 5.07 8.37-.42 4.65-4.1 3.77-2.26 9.64 1.84 5.87 8.09 9.73 8.09 9.73"/>
    <path fill="url(#g)" d="m231.6 238.19-28.79 16.01-9.4-5.66 27.42-15.04" opacity=".32"/>
    <path fill="#3b0459" d="M219.63 231.86v3.89h13.63v-3.89"/>
    <ellipse cx="226.45" cy="235.75" fill="#3b0459" rx="6.8099999" ry="3.8900001"/>
    <ellipse cx="226.45" cy="231.86" fill="#9b6d9c" rx="6.8099999" ry="3.8900001"/>
    <path fill="#3b0459" d="M205.33 239.68v3.89h13.62v-3.89"/>
    <ellipse cx="212.14" cy="243.57001" fill="#3b0459" rx="6.8099999" ry="3.8900001"/>
    <ellipse cx="212.14" cy="239.67999" fill="#9b6d9c" rx="6.8099999" ry="3.8900001"/>
    <path fill="url(#h)" d="m94.1 173.9-15.87 11.7-13.29-7.23 18.73-11.36" opacity=".32"/>
    <ellipse cx="86.82" cy="171.75" fill="#aed4ed" rx="7.8400002" ry="4.0500002"/>
    <ellipse cx="86.82" cy="163.09" fill="#aed4ed" rx="7.8400002" ry="4.0500002"/>
    <path fill="#aed4ed" d="M78.98 163.09v8.66h15.69v-8.66"/>
    <path fill="#fad0a0" d="M86.699997 158.64999h67.610001v6.2800002H86.699997z"/>
    <path fill="#fad0a0" d="M154.3 158.65s3.47 3.18 0 6.28M86.7 158.65s-2.91 3.91 0 6.28"/>
  </g>
</svg>
