<svg xmlns="http://www.w3.org/2000/svg" width="1140" height="450" data-name="Layer 1">
  <g transform="translate(-40.60444 .125834)">
    <path fill="#3f3d56" d="M903.65842 22.533472H329.35954a17.993272 16.276772 0 0 0-17.97358 16.258964V312.87212a17.993272 16.276772 0 0 0 17.97358 16.25896h574.29888a17.993272 16.276772 0 0 0 17.97356-16.25896V38.792436a17.993272 16.276772 0 0 0-17.97356-16.258964Zm16.26179 290.338648a16.276555 14.723824 0 0 1-16.26179 14.71049H329.35954a16.276555 14.723824 0 0 1-16.26181-14.71049V38.792436a16.276555 14.723824 0 0 1 16.26181-14.710491h574.29888a16.276555 14.723824 0 0 1 16.26179 14.710491z"/>
    <path fill="#3f3d56" d="M875.41422 66.951127H357.60375a.85588519.7742365 0 0 1 0-1.548473h517.81047a.85588519.7742365 0 0 1 0 1.548473z"/>
    <path fill="#3f3d56" d="M503.9601 295.83892a.85588507.77423639 0 0 1-.85589-.77424V40.340909a.85588507.77423639 0 1 1 1.71177 0V295.06468a.85592786.7742751 0 0 1-.85588.77424zM633.19874 295.83892a.85588507.77423639 0 0 1-.85588-.77424V40.340909a.85588507.77423639 0 1 1 1.71177 0V295.06468a.85592786.7742751 0 0 1-.85589.77424zM762.43739 295.83892a.85588507.77423639 0 0 1-.85589-.77424V40.340909a.85588507.77423639 0 1 1 1.71177 0V295.06468a.85592786.7742751 0 0 1-.85588.77424z"/>
    <path fill="#6c818c" d="M420.86705 146.86608h-31.27404a3.8557622 3.4879349 0 0 1-3.85148-3.48407v-33.38477a3.8557622 3.4879349 0 0 1 3.85148-3.48406h31.27404a3.8557622 3.4879349 0 0 1 3.85148 3.48406v33.38479a3.8557622 3.4879349 0 0 1-3.85148 3.48405zM465.37307 242.09715h-31.27404a3.8557622 3.4879349 0 0 1-3.85148-3.48406v-33.38477a3.8557622 3.4879349 0 0 1 3.85148-3.48406h31.27404a3.8557622 3.4879349 0 0 1 3.85149 3.48406v33.38479a3.8557622 3.4879349 0 0 1-3.85149 3.48404zM566.36761 166.99622h-31.27404a3.8558307 3.4879969 0 0 1-3.85148-3.48406v-33.38477a3.8558307 3.4879969 0 0 1 3.85148-3.48406h31.27404a3.8558307 3.4879969 0 0 1 3.85149 3.48406v33.38479a3.8558307 3.4879969 0 0 1-3.85149 3.48404zM697.31803 130.60711h-31.27404a3.8558307 3.4879969 0 0 1-3.85148-3.48406V93.738282a3.8558307 3.4879969 0 0 1 3.85148-3.48406h31.27404a3.8558307 3.4879969 0 0 1 3.85148 3.48406v33.384788a3.8558307 3.4879969 0 0 1-3.85148 3.48404zM817.99783 130.60711h-31.27404a3.8558307 3.4879969 0 0 1-3.85149-3.48406V93.738282a3.8558307 3.4879969 0 0 1 3.85149-3.48406h31.27404a3.8558307 3.4879969 0 0 1 3.85148 3.48406v33.384788a3.8558307 3.4879969 0 0 1-3.85148 3.48404z"/>
    <path fill="#e6e6e6" d="M873.63036 139.89795h-31.27405a3.8558307 3.4879969 0 0 1-3.85148-3.48406v-33.38477a3.8558307 3.4879969 0 0 1 3.85148-3.484068h31.27405a3.8558307 3.4879969 0 0 1 3.85148 3.484068v33.38478a3.8558307 3.4879969 0 0 1-3.85148 3.48405zM848.80969 199.51415h-31.27404a3.8558307 3.4879969 0 0 1-3.85149-3.48406v-33.38477a3.8558307 3.4879969 0 0 1 3.85149-3.48407h31.27404a3.8558307 3.4879969 0 0 1 3.85148 3.48407v33.38478a3.8558307 3.4879969 0 0 1-3.85148 3.48405z"/>
    <path fill="#ff6584" d="M742.67994 187.12637H711.4059a3.8558307 3.4879969 0 0 1-3.85148-3.48406v-33.38477a3.8558307 3.4879969 0 0 1 3.85148-3.48407h31.27404a3.8558307 3.4879969 0 0 1 3.85148 3.48407v33.38478a3.8558307 3.4879969 0 0 1-3.85148 3.48405z"/>
    <path fill="#e6e6e6" d="M681.9121 199.51415h-31.27404a3.8558307 3.4879969 0 0 1-3.85148-3.48406v-33.38477a3.8558307 3.4879969 0 0 1 3.85148-3.48407h31.27404a3.8558307 3.4879969 0 0 1 3.85148 3.48407v33.38478a3.8558307 3.4879969 0 0 1-3.85148 3.48405zM550.96168 252.16223h-31.27404a3.8558307 3.4879969 0 0 1-3.85148-3.48407v-33.38477a3.8558307 3.4879969 0 0 1 3.85148-3.48406h31.27404a3.8558307 3.4879969 0 0 1 3.85149 3.48406v33.38479a3.8558307 3.4879969 0 0 1-3.85149 3.48405z"/>
    <path fill="#ff6584" d="M392.62284 208.03075H361.3488a3.8557622 3.4879349 0 0 1-3.85148-3.48406v-33.38477a3.8557622 3.4879349 0 0 1 3.85148-3.48407h31.27404a3.8557622 3.4879349 0 0 1 3.85149 3.48407v33.38479a3.8557622 3.4879349 0 0 1-3.85149 3.48404z"/>
    <path fill="#e6e6e6" d="M480.77901 146.86608h-31.27405a3.8557622 3.4879349 0 0 1-3.85148-3.48407v-33.38477a3.8557622 3.4879349 0 0 1 3.85148-3.48406h31.27405a3.8557622 3.4879349 0 0 1 3.85148 3.48406v33.38479a3.8557622 3.4879349 0 0 1-3.85148 3.48405z"/>
    <path fill="#ccc" d="M455.17465 54.277164H406.3892a3.4235403 3.0969456 0 0 1 0-6.193891h48.78545a3.4235403 3.0969456 0 0 1 0 6.193891zM592.97214 54.277164h-48.78545a3.4235403 3.0969456 0 0 1 0-6.193891h48.78545a3.4235403 3.0969456 0 0 1 0 6.193891zM722.21079 54.277164h-48.78545a3.4235403 3.0969456 0 0 1 0-6.193891h48.78545a3.4235403 3.0969456 0 0 1 0 6.193891zM842.89058 54.277164h-48.78545a3.4235403 3.0969456 0 0 1 0-6.193891h48.78545a3.4235403 3.0969456 0 0 1 0 6.193891z"/>
    <path fill="#ffb8b8" d="M345.90631 281.0443a8.6065834 7.7855431 0 0 1-7.44626-9.85638l-21.93878-18.47413 11.59961-2.66194 21.57321 15.82835a8.6532291 7.8277389 0 0 1-3.78778 15.16408zM386.6933314 417.58991755l4.99152173-36.61209041h-15.48638445l.00171177 36.6120904z"/>
    <path fill="#2f2e41" d="m406.92992 426.40271-32.97788.001-.00058-11.52595 20.23645-.00084a12.741441 11.525949 0 0 1 12.74202 11.52542z"/>
    <path fill="#ffb8b8" d="m314.39586366 413.1783186 15.23561013-34.2181515-14.96515045-3.60329616-10.410986 35.37950608z"/>
    <path fill="#2f2e41" d="m331.44507 426.40568-31.86817-7.67336 3.27736-11.1381 19.55547 4.70865a11.525917 12.741406 89.999998 0 1 9.03534 14.10281zM389.51514 410.65801h-16.01128a4.0481738 3.661991 0 0 1-4.04497-3.3238l-9.71983-91.30693a3.2075748 2.9015825 0 0 0-6.26593-.55346l-28.22146 85.32025a4.0587439 3.6715528 0 0 1-4.87854 2.51324l-14.89504-3.36914a4.0632887 3.675664 0 0 1-2.95047-4.48059c.24323-.85967 24.31625-85.96216 24.52646-86.83696 5.45439-36.36416 11.97988-46.10865 15.48553-51.34306.29024-.43325.55687-.8317.79695-1.20823.30049-.47105 2.15037-5.14444 3.32388-8.17939a4.0996895 3.7085923 0 0 1 2.08413-2.30531c14.73037-6.81465 31.96509-2.09741 36.89646-.4892a4.0073395 3.6250522 0 0 1 2.00117 1.40557c14.79369 20.18534 7.53371 137.42016 5.92809 160.71677a4.0665411 3.6786061 0 0 1-4.05515 3.44024z"/>
    <ellipse cx="348.19574" cy="160.36632" fill="#ffb8b8" rx="21.021418" ry="19.016043"/>
    <path fill="#ccc" d="m345.96843 251.58193-.15107-.13232c-.28334-.24799-28.29185-25.06968-24.66709-48.02155 1.55025-9.81708 10.33081-16.0896 25.39217-18.14088a23.22421 21.008695 0 0 1 25.67634 14.80425l14.89232 46.05497z"/>
    <path fill="#ccc" d="m331.63319 269.23663-19.95783-17.93974a11.243514 10.170919 0 0 1-2.97825-9.59404l9.66172-35.55211a8.8619282 8.0165287 0 0 1 11.28047-5.72965 8.9103798 8.0603583 0 0 1 5.82779 9.90553l-10.17175 31.27643 16.44862 15.9777z"/>
    <path fill="#ffb8b8" d="M438.68007 208.01141a8.6065834 7.7855431 0 0 1-12.73877 3.11915l-26.64323 12.4919 1.1776-10.61152 23.6198-13.22307a8.6532377 7.8277467 0 0 1 14.58464 8.22354z"/>
    <path fill="#ccc" d="m423.03176 215.91032-25.9729 10.15299a10.962903 9.9170778 0 0 1-10.67888-1.03629l-33.02769-21.40691a8.8626899 8.0172178 0 0 1-1.68912-11.60259 8.9099775 8.0599944 0 0 1 12.33211-1.214l28.31992 20.16267 22.50996-7.87799z"/>
    <path fill="#2f2e41" d="M351.68072 166.45978c2.59333-2.93933 7.43834-3.09734 11.00056-5.03624 4.66612-2.53975 6.59523-8.21524 5.09156-12.94988-1.50367-4.73463-5.9382-8.42446-11.02243-10.18917-5.08424-1.76471-10.74085-1.78654-16.10424-.93348-7.98559 1.27012-15.84767 4.64164-20.71803 10.50557-4.87035 5.86394-6.1098 14.45177-1.69593 20.60431 2.02867 2.82779 5.16032 5.16195 5.97022 8.45244 1.06327 4.31988-2.28641 8.48627-5.87497 11.49431-4.08833 3.42699-8.77882 6.29717-12.36063 10.16026-3.58181 3.86308-5.97034 9.14079-4.33591 13.96114 1.36942 4.03869 5.35434 7.01418 9.72408 8.50428 4.36974 1.49009 9.12893 1.70541 13.79793 1.78801 4.53377.0802 9.34937-.0195 13.16864-2.23089 4.0887-2.36734 6.27177-6.85842 6.43306-11.24737.16129-4.38895-1.46003-8.68888-3.63293-12.6158-1.29515-2.34062-2.80102-4.60868-3.66163-7.1077-.8606-2.49901-1.00968-5.33461.36853-7.63609 1.44873-2.41922 4.37965-3.87815 7.36412-4.40865.15506-.0276.31913-.0522.49072-.0741a6.33224 5.7281647 0 0 0 5.42056-6.67985c-.34001-1.71442-.31065-3.35542.57672-4.36111z"/>
    <path fill="#a0616a" d="m621.46688553 418.40054305-4.99152173-36.61209041 15.48638446.00077423-.00171177 36.61131618z"/>
    <path fill="#2f2e41" d="M613.9719 415.68827h20.23643v11.52595h-32.97791a12.74145 11.525956 0 0 1 12.74148-11.52595z"/>
    <path fill="#a0616a" d="m698.55131848 411.59190823-21.35775604-31.42548083 14.08701237-5.82070918 16.81471808 33.30300408z"/>
    <path fill="#2f2e41" d="m690.48784 411.94212 18.40726-7.60547 5.29362 10.48412-29.997 12.39409a12.741433 11.525941 0 0 1 6.29612-15.27274z"/>
    <path fill="#a0616a" d="M677.53807 294.95396a8.6066005 7.7855585 0 0 0 .68567-11.92209l12.33467-25.31747-15.67009 2.40231-9.31081 23.6736a8.6532377 7.8277467 0 0 0 11.96056 11.16365z"/>
    <path fill="#2f2e41" d="M631.2912 408.74687h-10.02406a3.865913 3.4971174 0 0 1-3.84145-3.23153l-5.46654-132.05268a3.851286 3.4838857 0 0 1 4.21548-3.71995l57.97327 5.56936a3.8525955 3.4850703 0 0 1 3.47681 3.40164l1.21487 58.24995a2.9887935 2.7036722 0 0 0 .20019.92394l23.7809 55.78585a3.8505585 3.4832276 0 0 1-2.26216 4.52218l-10.158 3.38574a3.8524072 3.4848999 0 0 1-4.75647-1.6755l-29.21356-51.3854a3.8300857 3.4647078 0 0 1-.34603-.88463l-4.9905-21.7512a2.9955293 2.7097654 0 0 0-5.90903.24195l-10.06711 79.5324a3.8506269 3.4832895 0 0 1-3.82661 3.08788z"/>
    <ellipse cx="636.28265" cy="151.1944" fill="#a0616a" rx="21.021418" ry="19.016043"/>
    <path fill="#6c818c" d="M650.69883 285.53719a75.030583 67.872907 0 0 1-40.11773-10.9928l-.20456-.12775.0211-.22418 8.04104-84.71385a13.198176 11.939112 0 0 1 12.49496-10.88695c10.42125-.43324 24.41925.11304 31.91243 5.16146 11.32397 7.6297 16.78191 19.11887 14.97423 31.52102-3.74888 25.71916.49794 60.41312.99442 64.2843l.0359.279-.28209.1172a66.13091 59.822234 0 0 1-27.86976 5.58255z"/>
    <path fill="#6c818c" d="M678.71778 279.70206a4.2854165 3.8766016 0 0 1-3.15022-1.25587l-4.59829-4.53805a4.3015157 3.891165 0 0 1-.94929-3.71241l10.48522-32.10283-15.95361-30.30636a7.5594337 6.8382881 0 0 1-.51675-4.55204 7.5394916 6.8202484 0 0 1 13.96225-1.61351l21.64934 31.77621a10.228614 9.2528372 0 0 1 .61624 8.67008L682.623 277.42279a4.268761 3.861535 0 0 1-3.22357 2.22971 4.3254121 3.9127817 0 0 1-.68165.0496z"/>
    <path fill="#a0616a" d="M530.54518 218.37855a8.6065834 7.7855431 0 0 0 12.83703-2.76996l30.33085 3.55849-6.97049-12.92083-27.7341-1.39827a8.6532377 7.8277467 0 0 0-8.4633 13.53056z"/>
    <path fill="#6c818c" d="M597.39971 225.43519a11.490557 10.394395 0 0 1-1.57886-.0987l-47.71645-5.98672a4.7425619 4.2901367 0 0 1-3.63814-2.4089 4.8421355 4.3802114 0 0 1-.27206-.64192h-.00021a4.762213 4.3079132 0 0 1 .49213-3.43114l3.94865-5.92208a4.7793564 4.3234212 0 0 1 4.07047-2.0796h.007l41.59254.0431 31.06345-25.17592a8.4457712 7.6400718 0 0 1 5.22704-1.93521 8.4175526 7.6145452 0 0 1 6.31007 13.01912l-30.99635 31.18487a11.438048 10.346895 0 0 1-8.50913 3.43304z"/>
    <path fill="#2f2e41" d="M638.67243 168.11157c1.92104-4.02182 3.54661-9.37796-.13799-12.22143-2.13725-1.64934-5.21563-1.65275-8.01576-1.85795-7.88896-.5781-16.00978-3.86166-19.86575-10.11428-3.85597-6.25262-1.70255-15.55009 5.57201-18.37108 4.90356-1.90153 10.52519-.60616 15.65793.71049l15.4109 3.9532c4.57903 1.17461 9.3868 2.47001 12.68336 5.57566 5.25742 4.95301 4.86442 13.32589.68863 19.06015-4.17578 5.73425-10.46435 11.7148-17.66347 13.89197z"/>
    <path fill="#f9f9f9" d="M396.54974 303.17503c-.68985-30.88202-3.05463-47.94703-7.7022-55.58164-1.36216-2.23764-8.85484-23.82058-8.85484-25.50669 0-.30259 1.99854.69221 4.44121 2.21066 6.35539 3.95072 9.3461 3.63436 25.23186-2.66905 11.36209-4.50842 13.24907-5.52726 13.02845-7.03442-.28605-1.95402 2.15565-3.02252 5.12969-2.2448 1.6737.43769 1.77153 1.2082 1.77153 13.95201 0 11.94276.18565 13.65675 1.61983 14.95466 1.38595 1.25427 4.01613 1.46593 18.21637 1.46593 9.74654 0 17.30369-.37845 18.30985-.91692 1.61206-.86275 1.71329-2.03852 1.71329-19.89851 0-17.85999-.10123-19.03576-1.71329-19.89851-.97054-.51941-7.69063-.91693-15.50086-.91693-8.35893 0-13.78756-.33979-13.78756-.86301 0-1.40785-4.99353-3.5658-8.25131-3.5658-1.66359 0-3.9753.72115-5.13712 1.60256-3.90884 2.96541-8.885 5.50815-9.74243 4.97823-.46792-.28919-5.62734 1.15848-11.46536 3.21705-8.64616 3.04876-10.98076 3.56614-12.58912 2.78991-1.8793-.90698-1.84425-.95582.72706-1.01288 1.48587-.0329 3.17989-.53826 3.76449-1.12287 1.50356-1.50355 1.50356-37.11572 0-38.61927-.72882-.72883-5.11381-1.06446-13.95077-1.06783l-12.88785-.005-.12364-9.15045c-.13121-9.71142-1.03117-12.69604-4.88534-16.2018-5.4614-4.96769-14.73852-6.77727-24.6988-4.8177-7.42765 1.46129-12.44137 3.76634-16.86208 7.75229-4.68434 4.22364-6.97421 9.13746-6.99936 15.01985-.0162 3.78596.4949 5.27357 3.04315 8.85763 1.68444 2.3691 3.73459 5.56801 4.5559 7.10866 1.41881 2.66148 1.40725 2.96698-.23168 6.12512-.94873 1.82816-3.40383 4.71006-5.45578 6.40423l-3.73081 3.08071.23556-78.73783.23556-78.737837 2.06756-2.898784c1.13716-1.594331 3.61249-3.686946 5.50074-4.650257 3.39948-1.734285 6.29361-1.751473 294.91983-1.751473 288.62623 0 291.52036.01719 294.91983 1.751473 1.88825.963311 4.36358 3.055926 5.50074 4.650257l2.06756 2.898784V317.56868l-2.06756 2.89879c-1.13716 1.59433-3.61249 3.68694-5.50074 4.65025-3.3675 1.71798-5.6169 1.75148-117.60852 1.75148H679.62741l-.55856-4.65026c-.30721-2.55764-.56202-9.88282-.56626-16.27817-.006-9.26217.26262-11.85224 1.32095-12.73058 1.73926-1.44345 1.70586-6.97268-.0539-8.91715-1.26594-1.39884-1.16096-1.78 1.24496-4.52019 3.8451-4.37935 20.51009-38.34004 20.51009-41.79646 0-2.17133-2.73058-6.80792-11.82311-20.07593l-11.82309-17.25252 3.11455-.54912c5.22632-.92144 5.47367-1.86496 5.47367-20.87849 0-21.93717.96634-20.64614-15.45353-20.64614h-11.9105l2.69157-5.09314c2.22071-4.20214 2.62146-5.84072 2.29078-9.36649-.7593-8.09579-5.35359-11.54638-20.31568-15.25828l-9.56266-2.37237V67.340582h126.66413V181.60403c0 100.97701.1545 114.26345 1.32865 114.26345s1.32864-13.28644 1.32864-114.26345V67.340582h56.76266c45.01641 0 56.6863-.22912 56.39367-1.107204-.28896-.867097-12.59842-1.156647-56.76266-1.335201l-56.39362-.227997V51.759356c0-9.934374-.25525-12.826003-1.1072-12.542902-.8004.265968-1.17531 3.845471-1.35297 12.91738l-.24576 12.549459H634.20674v-12.91738c0-9.93962-.25524-12.832566-1.10721-12.549459-.80039.265968-1.17531 3.845471-1.35297 12.91738l-.24575 12.549459h-126.6155V51.839727c0-11.67462-.66109-15.243397-2.11964-11.442478-.29571.7706-.53765 6.547887-.53765 12.838419v11.43733l-72.78026.226588c-57.27478.178315-72.85888.462472-73.14928 1.333792-.29322.879804 14.65387 1.107204 72.77692 1.107204h73.14593l.22479 113.968218c.17795 90.22678.45543 114.04509 1.33199 114.33726.88195.29397 1.1072-22.89209 1.1072-113.96822V67.340582h126.66414v29.32495c0 25.596028-.16758 29.260648-1.31786 28.819248-3.22323-1.23687-10.2194-1.58537-13.05297-.65021-4.65385 1.53591-7.89607 5.44002-8.4266 10.14686-.59314 5.2623.14457 7.88892 3.20104 11.39727 1.60712 1.84473 2.7406 4.37961 3.1244 6.98732.98153 6.66904 4.82686 11.75547 11.09082 14.67041 5.12817 2.38642 5.36312 2.63776 5.37195 5.74679.008 2.85601-.29713 3.31852-2.51082 3.80474-1.38603.30441-9.85614 6.52727-18.82247 13.82857l-16.30243 13.27507-31.23965-.16776-31.23965-.16777-2.19791 2.06483c-1.20885 1.13566-2.19791 2.79254-2.19791 3.68195 0 1.36225-.73992 1.61713-4.69455 1.61713-2.582 0-5.17285.47831-5.75746 1.06292-.75791.75791-1.06291 6.29876-1.06291 19.30963 0 13.01088.305 18.55173 1.06291 19.30964.75488.75488 6.12724 1.06292 18.53776 1.06292 14.7052 0 17.69545-.22061 18.86676-1.39192 1.15272-1.15271 1.39191-3.89947 1.39191-15.98387v-14.59196l2.87873.48791c11.25635 1.9078 39.74901 4.90723 42.23225 4.4458 2.10575-.39128 4.92894-2.37659 9.20544-6.47339l6.1682-5.90903-.48719 4.42881c-2.87361 26.12265-5.29967 57.33793-4.49653 57.85538.58169.37476 1.16568 7.8522 1.53461 19.6489.32757 10.47415.83714 21.93371 1.13239 25.46569l.53682 6.42179h-216.9995Zm455.57491-104.7415c.46115-.73075.84457-9.37169.85203-19.20208.0114-15.07996-.20398-18.09098-1.37835-19.26535-2.12833-2.12833-34.48585-2.06334-36.8476.074-1.46787 1.3284-1.61983 3.15182-1.61983 19.43656 0 17.62618.0382 17.99778 1.99297 19.38659 2.83872 2.01683 35.69767 1.6352 37.00078-.42973zm-107.13929-11.54608c1.61207-.86275 1.7133-2.03852 1.7133-19.89851 0-17.85999-.10123-19.03576-1.7133-19.89851-1.00615-.53847-8.5633-.91693-18.30984-.91693-14.20024 0-16.83042.21167-18.21637 1.46593-1.46787 1.3284-1.61983 3.15181-1.61983 19.43656 0 17.56624.0443 18.00167 1.96861 19.34952 1.60805 1.12632 4.94446 1.37886 18.21638 1.37886 9.50611 0 16.95865-.38046 17.96105-.91692zm-175.61649-20.51854c.76025-.76026 1.06292-6.44143 1.06292-19.9516v-18.88868l-2.41068-.91653c-3.70462-1.4085-34.13523-.69193-35.98658.84739-1.27103 1.0568-1.46209 3.56608-1.46209 19.20209 0 15.17027.21794 18.20434 1.39192 19.37833 1.1713 1.1713 4.16155 1.39191 18.86675 1.39191 12.41053 0 17.78289-.30804 18.53776-1.06291zm-145.26516-20.37256c1.50355-1.50355 1.50355-37.11572 0-38.61927-1.50236-1.50235-36.23117-1.50235-37.73352 0-1.50355 1.50355-1.50355 37.11572 0 38.61927 1.50235 1.50235 36.23116 1.50235 37.73352 0zm59.52328.1959c1.11242-.7032 1.32865-3.87764 1.32865-19.50554 0-15.62788-.21623-18.80233-1.32865-19.50553-2.03878-1.2888-35.7184-1.11061-37.0249.1959-1.50355 1.50355-1.50355 37.11572 0 38.61927 1.3065 1.3065 34.98612 1.4847 37.0249.1959zm393.10171-7.282c1.50355-1.50356 1.50355-37.11572 0-38.61928-.75488-.754878-6.12723-1.062908-18.53776-1.062908-14.7052 0-17.69545.2206-18.86676 1.391908-1.17017 1.17017-1.39191 4.14269-1.39191 18.65926 0 10.20893.37481 17.96769.91692 18.98064.86024 1.60735 2.02683 1.71329 18.86676 1.71329 12.77996 0 18.25597-.30614 19.01275-1.06291zm-176.91726-8.71164c1.60994-.86162 1.71248-2.02381 1.69974-19.26536-.007-10.09163-.39086-18.946308-.852-19.677058-1.29752-2.05617-33.7996-2.47676-36.8518-.47688l-2.14199 1.40348v18.074458c0 15.2503.21749 18.29194 1.39192 19.46637 1.16767 1.16766 4.10243 1.39191 18.21637 1.39191 9.90365 0 17.52924-.37718 18.53776-.91692zm121.11418-.146c.76006-.76006 1.06291-6.42962 1.06291-19.8985 0-17.715658-.10187-18.890108-1.71329-19.752518-1.00455-.53762-8.51618-.91693-18.15815-.91693-21.71228 0-19.9879-1.80886-19.9879 20.967128 0 14.97028.20644 17.6522 1.46593 19.04391 1.32539 1.46455 3.13402 1.61983 18.86675 1.61983 12.35296 0 17.70917-.30834 18.46375-1.06292zM457.4118 53.783066c.97249-.711099 1.46433-1.990929 1.2765-3.321612l-.30556-2.16478h-54.91732l-.28943 2.041721c-.63983 4.51343-.11837 4.601503 27.24438 4.601503 19.51077 0 25.77664-.26855 26.99143-1.156832zm138.20097-.235082c1.66436-1.664361 1.77258-3.187697.329-4.631276-1.51827-1.518265-53.04475-1.518265-54.56302 0-1.54174 1.541742-1.30308 4.023751.48717 5.066478.95194.554451 11.35244.913236 26.95251.929777 21.93617.02326 25.59236-.162997 26.79434-1.364979zm129.32142 0c1.64672-1.646713 1.66084-1.765108.47499-3.980896-.87502-1.634974-2.12216-1.713296-27.2815-1.713296-19.32477 0-26.6484.283817-27.4275 1.062916-1.54174 1.541742-1.30308 4.023751.48717 5.066478.95194.554451 11.35244.913236 26.95251.929777 21.93617.02326 25.59235-.162997 26.79433-1.364979zm120.14242.474986c1.93092-1.033402 2.2464-3.510239.65038-5.106262-1.51827-1.518265-53.04475-1.518265-54.56302 0-1.44358 1.443579-1.33536 2.966915.329 4.631276 1.20025 1.200244 4.8674 1.391914 26.63113 1.391914 15.70415 0 25.88647-.346405 26.95251-.916928z"/>
  </g>
  <path fill="#f9f9f9" d="M277.38652 322.50139c-1.76964-1.76964-3.4341-4.10677-3.69878-5.19361-.26469-1.08684-.37003-15.6762-.23408-32.4208l.24717-30.44472 8.65974 7.72523c7.14795 6.37659 8.88575 7.53767 9.95435 6.6508 2.3455-1.94659 2.38988 1.10289.13017 8.94346-1.18157 4.0997-3.03866 12.23712-4.12686 18.08316-2.04831 11.00386-5.86883 26.55454-7.04281 28.66634-.50835.91445-1.4526.42645-3.8889-2.00986zM309.62689 326.62518c.19136-2.41434 4.20571-11.29347 5.45899-12.07445 2.3731-1.47879 3.48628.36909 4.16342 6.91129l.60316 5.82749h-5.13911c-2.82651 0-5.11542-.29895-5.08646-.66433zM293.25619 249.41123l-7.86636-7.90298 1.13528-4.05482c.6244-2.23015 1.45493-4.05482 1.84561-4.05482.39069 0 1.60645 1.29542 2.70169 2.87873 1.09525 1.5833 4.47027 5.68362 7.50006 9.11183 5.46217 6.18044 5.4986 6.25714 4.31206 9.07907-.65815 1.56528-1.32384 2.84597-1.47931 2.84597-.15546 0-3.82253-3.55634-8.14903-7.90298zM605.11681 325.91403c.60918-1.58751 3.96874-1.38786 4.51415.26827.23829.72356-.57206 1.10721-2.33867 1.10721-2.07993 0-2.58159-.31718-2.17548-1.37548z"/>
  <path fill="#f9f9f9" d="M310.70178 326.57191c-.81373-.51694-.44631-2.04494 1.46201-6.08007 2.80481-5.93077 3.85441-7.02028 5.17504-5.37183 1.02508 1.27955 2.80712 11.04593 2.13766 11.71539-.71107.71106-7.56461.50526-8.77471-.26349zM636.54744 239.59895c-.0132-6.60891-.006-6.62891 1.36842-3.87217 1.2482 2.5033 1.24949 3.14519.0133 6.64322l-1.36842 3.87217z"/>
  <path fill="#a0616a" d="M593.90423 175.16582c0-4.98763.0563-5.08697 2.88458-5.08697 1.58652 0 4.17737-.47319 5.75746-1.05153l2.87288-1.05153v12.27703h-11.51492z"/>
  <path fill="#f9f9f9" d="M287.5668 233.78409c.0122-.3334.15593-.94646.31937-1.36236.27338-.6957.35192-.6726.9819.28887.85765 1.30895.87713 1.73625.0478 1.04793-.5279-.43812-.69985-.42929-1.00411.0515-.31453.49706-.36395.49334-.34492-.026z"/>
  <path fill="#ffb8b8" d="M298.44348 186.49716c0-2.32438.56141-4.22782 1.75075-5.93577 1.54897-2.22439 2.63047-2.80156 4.27722-2.28263 2.93909.92615 8.48939.31162 11.52099-1.27563.58017-.30376.63649.10517.63649 4.62158v4.95483l-1.36391-.53832c-3.14114-1.23977-12.37183-.17581-16.18505 1.86553-.53358.28565-.63649.0577-.63649-1.40959z"/>
</svg>
